STARTFONT 2.1
FONT -FontForge-Source Sans Pro SemiBold-Demi-R-Normal-SansPro-18-170-75-75--91--
SIZE 17 75 75
FONTBOUNDINGBOX 47 23 -8 -5
COMMENT "Generated by fontforge, http://fontforge.sourceforge.net"
COMMENT "Copyright 2010, 2012, 2014 Adobe Systems Incorporated (http://www.adobe.com/), with Reserved Font Name `Source'."
STARTPROPERTIES 40
FOUNDRY "FontForge"
FAMILY_NAME "Source Sans Pro SemiBold"
WEIGHT_NAME "Demi"
SLANT "R"
SETWIDTH_NAME "Normal"
ADD_STYLE_NAME "SansPro"
PIXEL_SIZE 18
POINT_SIZE 170
RESOLUTION_X 75
RESOLUTION_Y 75
SPACING ""
AVERAGE_WIDTH 0
CHARSET_REGISTRY ""
CHARSET_ENCODING ""
FONTNAME_REGISTRY ""
CHARSET_COLLECTIONS "ISO8859-2 ISO8859-5 ISO8859-7 ISO8859-9 ISO8859-4 ISO10646-1"
FONT_NAME "SourceSansPro-SemiBold"
FACE_NAME "Source Sans Pro SemiBold"
COPYRIGHT "Copyright 2010, 2012, 2014 Adobe Systems Incorporated (http://www.adobe.com/), with Reserved Font Name `Source'."
FONT_VERSION "2.021;PS 2.000;hotconv 1.0.86;makeotf.lib2.5.63406"
FONT_ASCENT 13
FONT_DESCENT 5
UNDERLINE_POSITION -2
UNDERLINE_THICKNESS 1
X_HEIGHT 8
CAP_HEIGHT 11
RAW_ASCENT 750
RAW_DESCENT 250
NORM_SPACE 4
RELATIVE_WEIGHT 60
RELATIVE_SETWIDTH 50
SUPERSCRIPT_X 0
SUPERSCRIPT_Y 6
SUPERSCRIPT_SIZE 10
SUBSCRIPT_X 0
SUBSCRIPT_Y 1
SUBSCRIPT_SIZE 10
FIGURE_WIDTH 9
AVG_LOWERCASE_WIDTH 93
AVG_UPPERCASE_WIDTH 111
ENDPROPERTIES
CHARS 1896
STARTCHAR space
ENCODING 32
SWIDTH 200 0
DWIDTH 4 0
BBX 1 1 0 0
BITMAP
00
ENDCHAR
STARTCHAR exclam
ENCODING 33
SWIDTH 315 0
DWIDTH 6 0
BBX 3 12 1 0
BITMAP
60
60
60
60
60
60
60
60
00
60
E0
60
ENDCHAR
STARTCHAR quotedbl
ENCODING 34
SWIDTH 482 0
DWIDTH 9 0
BBX 6 5 1 7
BITMAP
EC
CC
4C
4C
44
ENDCHAR
STARTCHAR numbersign
ENCODING 35
SWIDTH 513 0
DWIDTH 9 0
BBX 8 12 1 0
BITMAP
26
24
24
FF
FF
64
44
FE
FE
4C
48
48
ENDCHAR
STARTCHAR dollar
ENCODING 36
SWIDTH 513 0
DWIDTH 9 0
BBX 7 15 1 -2
BITMAP
10
10
3C
7E
C4
C0
70
3C
0E
06
C6
FE
7C
10
10
ENDCHAR
STARTCHAR percent
ENCODING 37
SWIDTH 841 0
DWIDTH 15 0
BBX 14 12 1 0
BITMAP
7040
98C0
8880
8980
8900
9A70
72C8
04CC
048C
08CC
08C8
1070
ENDCHAR
STARTCHAR ampersand
ENCODING 38
SWIDTH 639 0
DWIDTH 12 0
BBX 11 12 0 0
BITMAP
1E00
3E00
3300
3200
3600
1C00
3860
6C40
46C0
E380
7FE0
3E60
ENDCHAR
STARTCHAR quotesingle
ENCODING 39
SWIDTH 275 0
DWIDTH 5 0
BBX 3 5 1 7
BITMAP
E0
C0
40
40
40
ENDCHAR
STARTCHAR parenleft
ENCODING 40
SWIDTH 324 0
DWIDTH 6 0
BBX 4 16 1 -3
BITMAP
30
30
60
60
40
40
C0
C0
C0
C0
40
40
60
60
30
30
ENDCHAR
STARTCHAR parenright
ENCODING 41
SWIDTH 324 0
DWIDTH 6 0
BBX 3 16 1 -3
BITMAP
80
C0
40
60
60
20
20
20
20
20
20
60
60
40
C0
80
ENDCHAR
STARTCHAR asterisk
ENCODING 42
SWIDTH 438 0
DWIDTH 8 0
BBX 6 6 1 7
BITMAP
30
30
FC
30
78
48
ENDCHAR
STARTCHAR plus
ENCODING 43
SWIDTH 513 0
DWIDTH 9 0
BBX 8 8 1 2
BITMAP
10
10
10
FF
FF
10
10
10
ENDCHAR
STARTCHAR comma
ENCODING 44
SWIDTH 275 0
DWIDTH 5 0
BBX 3 6 1 -3
BITMAP
60
E0
E0
20
60
C0
ENDCHAR
STARTCHAR hyphen
ENCODING 45
SWIDTH 322 0
DWIDTH 6 0
BBX 4 2 1 4
BITMAP
F0
F0
ENDCHAR
STARTCHAR period
ENCODING 46
SWIDTH 275 0
DWIDTH 5 0
BBX 3 3 1 0
BITMAP
E0
E0
E0
ENDCHAR
STARTCHAR slash
ENCODING 47
SWIDTH 344 0
DWIDTH 6 0
BBX 6 16 0 -3
BITMAP
0C
08
08
18
18
10
10
30
30
20
20
60
60
40
40
C0
ENDCHAR
STARTCHAR zero
ENCODING 48
SWIDTH 513 0
DWIDTH 9 0
BBX 8 11 1 0
BITMAP
38
7E
C6
C6
C6
C3
C6
C6
C6
7E
38
ENDCHAR
STARTCHAR one
ENCODING 49
SWIDTH 513 0
DWIDTH 9 0
BBX 7 11 1 0
BITMAP
18
38
78
78
18
18
18
18
18
FE
FE
ENDCHAR
STARTCHAR two
ENCODING 50
SWIDTH 513 0
DWIDTH 9 0
BBX 7 11 1 0
BITMAP
78
FC
CE
06
06
0C
18
30
60
FE
FE
ENDCHAR
STARTCHAR three
ENCODING 51
SWIDTH 513 0
DWIDTH 9 0
BBX 8 11 0 0
BITMAP
3E
7F
63
03
1E
1E
03
03
43
FF
3E
ENDCHAR
STARTCHAR four
ENCODING 52
SWIDTH 513 0
DWIDTH 9 0
BBX 9 11 0 0
BITMAP
0E00
0E00
1E00
3600
7600
6600
FF80
FF80
0600
0600
0600
ENDCHAR
STARTCHAR five
ENCODING 53
SWIDTH 513 0
DWIDTH 9 0
BBX 8 11 0 0
BITMAP
3F
3F
20
7E
7F
23
03
03
43
FF
3C
ENDCHAR
STARTCHAR six
ENCODING 54
SWIDTH 513 0
DWIDTH 9 0
BBX 8 11 1 0
BITMAP
3C
7E
E2
C0
DC
FE
C6
C3
C6
7E
3C
ENDCHAR
STARTCHAR seven
ENCODING 55
SWIDTH 513 0
DWIDTH 9 0
BBX 7 11 1 0
BITMAP
FE
FE
06
0C
0C
18
18
38
30
30
30
ENDCHAR
STARTCHAR eight
ENCODING 56
SWIDTH 513 0
DWIDTH 9 0
BBX 8 11 1 0
BITMAP
3C
FE
C6
E6
7C
7C
C6
C2
C7
FE
7C
ENDCHAR
STARTCHAR nine
ENCODING 57
SWIDTH 513 0
DWIDTH 9 0
BBX 7 11 1 0
BITMAP
78
FC
C6
C6
C6
FE
7E
06
8E
FC
78
ENDCHAR
STARTCHAR colon
ENCODING 58
SWIDTH 275 0
DWIDTH 5 0
BBX 3 9 1 0
BITMAP
E0
E0
E0
00
00
00
E0
E0
E0
ENDCHAR
STARTCHAR semicolon
ENCODING 59
SWIDTH 275 0
DWIDTH 5 0
BBX 3 12 1 -3
BITMAP
E0
E0
E0
00
00
00
60
E0
E0
20
60
C0
ENDCHAR
STARTCHAR less
ENCODING 60
SWIDTH 513 0
DWIDTH 9 0
BBX 8 8 1 2
BITMAP
03
0F
7C
E0
E0
7C
0F
03
ENDCHAR
STARTCHAR equal
ENCODING 61
SWIDTH 513 0
DWIDTH 9 0
BBX 8 6 1 3
BITMAP
FF
FF
00
00
FF
FF
ENDCHAR
STARTCHAR greater
ENCODING 62
SWIDTH 513 0
DWIDTH 9 0
BBX 8 8 1 2
BITMAP
80
E0
3C
0F
0F
3C
E0
80
ENDCHAR
STARTCHAR question
ENCODING 63
SWIDTH 444 0
DWIDTH 8 0
BBX 6 12 1 0
BITMAP
78
FC
8C
0C
0C
18
30
30
00
30
70
30
ENDCHAR
STARTCHAR at
ENCODING 64
SWIDTH 875 0
DWIDTH 16 0
BBX 14 15 1 -3
BITMAP
07C0
1FF0
3838
6008
674C
CFCC
CCCC
888C
8988
8FF8
CEF0
6000
7040
3FC0
0F80
ENDCHAR
STARTCHAR A
ENCODING 65
SWIDTH 558 0
DWIDTH 10 0
BBX 10 12 0 0
BITMAP
0C00
1E00
1E00
1200
3300
3300
3300
7F80
7F80
6180
E1C0
C0C0
ENDCHAR
STARTCHAR B
ENCODING 66
SWIDTH 597 0
DWIDTH 11 0
BBX 9 12 1 0
BITMAP
FE00
FF00
E300
E300
E300
FE00
FF00
E180
E180
E180
FF00
FE00
ENDCHAR
STARTCHAR C
ENCODING 67
SWIDTH 576 0
DWIDTH 10 0
BBX 9 12 1 0
BITMAP
1E00
3F80
7100
E000
C000
C000
C000
C000
E000
7100
7F80
1E00
ENDCHAR
STARTCHAR D
ENCODING 68
SWIDTH 625 0
DWIDTH 11 0
BBX 9 12 1 0
BITMAP
FC00
FF00
E380
E180
E180
E180
E180
E180
E180
E380
FF00
FC00
ENDCHAR
STARTCHAR E
ENCODING 69
SWIDTH 538 0
DWIDTH 10 0
BBX 8 12 1 0
BITMAP
FF
FF
E0
E0
E0
FE
FE
E0
E0
E0
FF
FF
ENDCHAR
STARTCHAR F
ENCODING 70
SWIDTH 510 0
DWIDTH 9 0
BBX 8 12 1 0
BITMAP
FF
FF
E0
E0
E0
FE
FE
E0
E0
E0
E0
E0
ENDCHAR
STARTCHAR G
ENCODING 71
SWIDTH 628 0
DWIDTH 11 0
BBX 9 12 1 0
BITMAP
1F00
3F80
7100
E000
C000
C780
C780
C180
E180
7180
7F80
1F00
ENDCHAR
STARTCHAR H
ENCODING 72
SWIDTH 663 0
DWIDTH 12 0
BBX 9 12 1 0
BITMAP
E180
E180
E180
E180
E180
FF80
FF80
E180
E180
E180
E180
E180
ENDCHAR
STARTCHAR I
ENCODING 73
SWIDTH 282 0
DWIDTH 5 0
BBX 3 12 1 0
BITMAP
E0
E0
E0
E0
E0
E0
E0
E0
E0
E0
E0
E0
ENDCHAR
STARTCHAR J
ENCODING 74
SWIDTH 494 0
DWIDTH 9 0
BBX 7 12 0 0
BITMAP
06
06
06
06
06
06
06
06
06
46
FE
3C
ENDCHAR
STARTCHAR K
ENCODING 75
SWIDTH 597 0
DWIDTH 11 0
BBX 10 12 1 0
BITMAP
E380
E300
E600
EC00
FC00
FC00
FE00
E600
E700
E300
E180
E1C0
ENDCHAR
STARTCHAR L
ENCODING 76
SWIDTH 502 0
DWIDTH 9 0
BBX 7 12 1 0
BITMAP
E0
E0
E0
E0
E0
E0
E0
E0
E0
E0
FE
FE
ENDCHAR
STARTCHAR M
ENCODING 77
SWIDTH 745 0
DWIDTH 13 0
BBX 11 12 1 0
BITMAP
E0E0
E0E0
F0E0
F1E0
D1E0
D960
DB60
CB60
CE60
C660
C460
C060
ENDCHAR
STARTCHAR N
ENCODING 78
SWIDTH 656 0
DWIDTH 12 0
BBX 9 12 1 0
BITMAP
E180
E180
F180
D980
D980
CD80
CD80
C780
C680
C380
C380
C180
ENDCHAR
STARTCHAR O
ENCODING 79
SWIDTH 674 0
DWIDTH 12 0
BBX 10 12 1 0
BITMAP
1E00
7F80
6180
E0C0
C0C0
C0C0
C0C0
C0C0
E0C0
6180
7F80
1E00
ENDCHAR
STARTCHAR P
ENCODING 80
SWIDTH 582 0
DWIDTH 10 0
BBX 9 12 1 0
BITMAP
FE00
FF00
E380
E180
E180
E380
FF00
FE00
E000
E000
E000
E000
ENDCHAR
STARTCHAR Q
ENCODING 81
SWIDTH 674 0
DWIDTH 12 0
BBX 11 15 1 -3
BITMAP
1E00
7F80
6180
E0C0
C0C0
C0C0
C0C0
C0C0
E0C0
6180
7F80
1F00
0E00
07C0
03E0
ENDCHAR
STARTCHAR R
ENCODING 82
SWIDTH 592 0
DWIDTH 11 0
BBX 9 12 1 0
BITMAP
FE00
FF00
E380
E180
E180
E300
FF00
FE00
E600
E700
E300
E180
ENDCHAR
STARTCHAR S
ENCODING 83
SWIDTH 545 0
DWIDTH 10 0
BBX 8 12 1 0
BITMAP
3C
7F
E2
C0
E0
7C
1E
07
03
C3
FF
3C
ENDCHAR
STARTCHAR T
ENCODING 84
SWIDTH 546 0
DWIDTH 10 0
BBX 9 12 0 0
BITMAP
FF80
FF80
0C00
0C00
0C00
0C00
0C00
0C00
0C00
0C00
0C00
0C00
ENDCHAR
STARTCHAR U
ENCODING 85
SWIDTH 655 0
DWIDTH 12 0
BBX 9 12 1 0
BITMAP
E180
E180
E180
E180
E180
E180
E180
E180
6180
6380
7F00
1E00
ENDCHAR
STARTCHAR V
ENCODING 86
SWIDTH 536 0
DWIDTH 10 0
BBX 10 12 0 0
BITMAP
C1C0
E180
6180
6180
6300
3300
3300
3200
1600
1E00
1E00
1C00
ENDCHAR
STARTCHAR W
ENCODING 87
SWIDTH 800 0
DWIDTH 14 0
BBX 14 12 0 0
BITMAP
E30C
638C
638C
6398
6698
6698
34D8
34D8
3CD0
3C50
3C70
1870
ENDCHAR
STARTCHAR X
ENCODING 88
SWIDTH 541 0
DWIDTH 10 0
BBX 10 12 0 0
BITMAP
E180
6300
3300
3600
1E00
1C00
1C00
1E00
3700
3300
6380
E1C0
ENDCHAR
STARTCHAR Y
ENCODING 89
SWIDTH 501 0
DWIDTH 9 0
BBX 9 12 0 0
BITMAP
C180
6300
6300
3600
3600
3600
1C00
1C00
1C00
1C00
1C00
1C00
ENDCHAR
STARTCHAR Z
ENCODING 90
SWIDTH 540 0
DWIDTH 10 0
BBX 8 12 1 0
BITMAP
FF
FF
06
0C
0C
18
38
70
60
E0
FF
FF
ENDCHAR
STARTCHAR bracketleft
ENCODING 91
SWIDTH 324 0
DWIDTH 6 0
BBX 3 16 2 -3
BITMAP
E0
E0
80
80
80
80
80
80
80
80
80
80
80
80
E0
E0
ENDCHAR
STARTCHAR backslash
ENCODING 92
SWIDTH 344 0
DWIDTH 6 0
BBX 6 16 0 -3
BITMAP
C0
40
40
60
20
20
20
30
10
10
18
18
08
08
0C
0C
ENDCHAR
STARTCHAR bracketright
ENCODING 93
SWIDTH 324 0
DWIDTH 6 0
BBX 3 16 1 -3
BITMAP
E0
E0
20
20
20
20
20
20
20
20
20
20
20
20
E0
E0
ENDCHAR
STARTCHAR asciicircum
ENCODING 94
SWIDTH 513 0
DWIDTH 9 0
BBX 7 7 1 5
BITMAP
18
38
28
6C
64
46
C6
ENDCHAR
STARTCHAR underscore
ENCODING 95
SWIDTH 500 0
DWIDTH 9 0
BBX 9 2 0 -3
BITMAP
FF80
FF80
ENDCHAR
STARTCHAR grave
ENCODING 96
SWIDTH 549 0
DWIDTH 10 0
BBX 4 4 2 10
BITMAP
40
E0
70
20
ENDCHAR
STARTCHAR a
ENCODING 97
SWIDTH 516 0
DWIDTH 9 0
BBX 7 9 1 0
BITMAP
3C
FE
46
3E
66
C6
CE
FE
76
ENDCHAR
STARTCHAR b
ENCODING 98
SWIDTH 563 0
DWIDTH 10 0
BBX 8 13 1 0
BITMAP
C0
C0
C0
C0
DE
FF
E3
C3
C3
C3
E7
FE
DC
ENDCHAR
STARTCHAR c
ENCODING 99
SWIDTH 462 0
DWIDTH 8 0
BBX 7 9 1 0
BITMAP
3C
7E
E4
C0
C0
C0
E4
7E
3C
ENDCHAR
STARTCHAR d
ENCODING 100
SWIDTH 564 0
DWIDTH 10 0
BBX 8 13 1 0
BITMAP
03
03
03
03
3B
7F
E7
C3
C3
C3
E7
7F
3B
ENDCHAR
STARTCHAR e
ENCODING 101
SWIDTH 507 0
DWIDTH 9 0
BBX 7 9 1 0
BITMAP
3C
7E
C6
C2
FE
C0
E4
7E
3C
ENDCHAR
STARTCHAR f
ENCODING 102
SWIDTH 317 0
DWIDTH 6 0
BBX 6 13 0 0
BITMAP
1C
3C
30
30
F8
F8
30
30
30
30
30
30
30
ENDCHAR
STARTCHAR g
ENCODING 103
SWIDTH 520 0
DWIDTH 9 0
BBX 8 13 1 -4
BITMAP
7F
FF
C6
C6
7E
7C
C0
FE
7F
C3
C3
FE
7C
ENDCHAR
STARTCHAR h
ENCODING 104
SWIDTH 558 0
DWIDTH 10 0
BBX 8 13 1 0
BITMAP
C0
C0
C0
C0
DE
FF
E3
C3
C3
C3
C3
C3
C3
ENDCHAR
STARTCHAR i
ENCODING 105
SWIDTH 262 0
DWIDTH 5 0
BBX 3 13 1 0
BITMAP
E0
C0
00
00
C0
C0
C0
C0
C0
C0
C0
C0
C0
ENDCHAR
STARTCHAR j
ENCODING 106
SWIDTH 263 0
DWIDTH 5 0
BBX 5 17 -1 -4
BITMAP
38
30
00
00
30
30
30
30
30
30
30
30
30
30
30
F0
E0
ENDCHAR
STARTCHAR k
ENCODING 107
SWIDTH 522 0
DWIDTH 9 0
BBX 8 13 1 0
BITMAP
C0
C0
C0
C0
C7
CE
CC
D8
F8
EC
E6
C6
C3
ENDCHAR
STARTCHAR l
ENCODING 108
SWIDTH 271 0
DWIDTH 5 0
BBX 3 13 1 0
BITMAP
C0
C0
C0
C0
C0
C0
C0
C0
C0
C0
C0
E0
60
ENDCHAR
STARTCHAR m
ENCODING 109
SWIDTH 843 0
DWIDTH 15 0
BBX 13 9 1 0
BITMAP
DE70
FFF8
E718
C318
C318
C318
C318
C318
C318
ENDCHAR
STARTCHAR n
ENCODING 110
SWIDTH 560 0
DWIDTH 10 0
BBX 8 9 1 0
BITMAP
DE
FF
E3
C3
C3
C3
C3
C3
C3
ENDCHAR
STARTCHAR o
ENCODING 111
SWIDTH 549 0
DWIDTH 10 0
BBX 8 9 1 0
BITMAP
3C
7E
E7
C3
C3
C3
E7
7E
3C
ENDCHAR
STARTCHAR p
ENCODING 112
SWIDTH 564 0
DWIDTH 10 0
BBX 8 13 1 -4
BITMAP
DE
FF
E3
C3
C3
C3
E7
FE
DC
C0
C0
C0
C0
ENDCHAR
STARTCHAR q
ENCODING 113
SWIDTH 564 0
DWIDTH 10 0
BBX 8 12 1 -3
BITMAP
3B
7F
E7
C3
C3
C3
E7
7F
3B
03
03
03
ENDCHAR
STARTCHAR r
ENCODING 114
SWIDTH 373 0
DWIDTH 7 0
BBX 6 9 1 0
BITMAP
DC
FC
E0
C0
C0
C0
C0
C0
C0
ENDCHAR
STARTCHAR s
ENCODING 115
SWIDTH 431 0
DWIDTH 8 0
BBX 7 9 0 0
BITMAP
3C
7E
64
70
3C
06
46
FE
3C
ENDCHAR
STARTCHAR t
ENCODING 116
SWIDTH 361 0
DWIDTH 7 0
BBX 6 12 0 0
BITMAP
30
30
30
FC
FC
30
30
30
30
30
3C
1C
ENDCHAR
STARTCHAR u
ENCODING 117
SWIDTH 556 0
DWIDTH 10 0
BBX 8 9 1 0
BITMAP
C3
C3
C3
C3
C3
C3
E7
7F
7B
ENDCHAR
STARTCHAR v
ENCODING 118
SWIDTH 495 0
DWIDTH 9 0
BBX 9 9 0 0
BITMAP
C180
6300
6300
6300
3600
3600
3600
1C00
1C00
ENDCHAR
STARTCHAR w
ENCODING 119
SWIDTH 748 0
DWIDTH 13 0
BBX 13 9 0 0
BITMAP
E318
6718
6710
65B0
35B0
3DB0
3CA0
3CE0
18E0
ENDCHAR
STARTCHAR x
ENCODING 120
SWIDTH 481 0
DWIDTH 9 0
BBX 8 9 0 0
BITMAP
E3
76
36
1C
1C
3C
36
66
E3
ENDCHAR
STARTCHAR y
ENCODING 121
SWIDTH 495 0
DWIDTH 9 0
BBX 9 13 0 -4
BITMAP
C180
6300
6300
3300
3600
3600
1600
1C00
1C00
0C00
1800
7800
7000
ENDCHAR
STARTCHAR z
ENCODING 122
SWIDTH 443 0
DWIDTH 8 0
BBX 7 9 1 0
BITMAP
FC
FC
18
18
30
60
60
FE
FE
ENDCHAR
STARTCHAR braceleft
ENCODING 123
SWIDTH 324 0
DWIDTH 6 0
BBX 4 16 1 -3
BITMAP
30
70
60
60
60
60
60
C0
C0
60
60
60
60
60
70
30
ENDCHAR
STARTCHAR bar
ENCODING 124
SWIDTH 255 0
DWIDTH 5 0
BBX 1 18 2 -5
BITMAP
80
80
80
80
80
80
80
80
80
80
80
80
80
80
80
80
80
80
ENDCHAR
STARTCHAR braceright
ENCODING 125
SWIDTH 324 0
DWIDTH 6 0
BBX 4 16 1 -3
BITMAP
C0
E0
60
60
60
60
60
70
70
60
60
60
60
60
E0
C0
ENDCHAR
STARTCHAR asciitilde
ENCODING 126
SWIDTH 513 0
DWIDTH 9 0
BBX 8 4 1 4
BITMAP
60
F2
9F
0C
ENDCHAR
ENDFONT
