STARTFONT 2.1
FONT -FontForge-Source Sans Pro-Bold-R-Normal-SansPro--20-190-75-75-P-104-ISO10646-1
SIZE 19 75 75
FONTBOUNDINGBOX 52 28 -9 -7
COMMENT "Generated by fontforge, http://fontforge.sourceforge.net"
COMMENT "Copyright 2010, 2012, 2014 Adobe Systems Incorporated (http://www.adobe.com/), with Reserved Font Name `Source'."
STARTPROPERTIES 40
FOUNDRY "FontForge"
FAMILY_NAME "Source Sans Pro"
WEIGHT_NAME "Bold"
SLANT "R"
SETWIDTH_NAME "Normal"
ADD_STYLE_NAME "SansPro"
PIXEL_SIZE 20
POINT_SIZE 190
RESOLUTION_X 75
RESOLUTION_Y 75
SPACING "P"
AVERAGE_WIDTH 104
CHARSET_REGISTRY "ISO10646"
CHARSET_ENCODING "1"
FONTNAME_REGISTRY ""
CHARSET_COLLECTIONS "ISO8859-2 ISO8859-5 ISO8859-7 ISO8859-9 ISO8859-4 ISO10646-1"
FONT_NAME "SourceSansPro-Bold"
FACE_NAME "Source Sans Pro Bold"
COPYRIGHT "Copyright 2010, 2012, 2014 Adobe Systems Incorporated (http://www.adobe.com/), with Reserved Font Name `Source'."
FONT_VERSION "2.021;PS 2.000;hotconv 1.0.86;makeotf.lib2.5.63406"
FONT_ASCENT 15
FONT_DESCENT 5
UNDERLINE_POSITION -2
UNDERLINE_THICKNESS 1
X_HEIGHT 9
CAP_HEIGHT 12
RAW_ASCENT 750
RAW_DESCENT 250
NORM_SPACE 4
RELATIVE_WEIGHT 70
RELATIVE_SETWIDTH 50
SUPERSCRIPT_X 0
SUPERSCRIPT_Y 7
SUPERSCRIPT_SIZE 12
SUBSCRIPT_X 0
SUBSCRIPT_Y 1
SUBSCRIPT_SIZE 12
FIGURE_WIDTH 11
AVG_LOWERCASE_WIDTH 107
AVG_UPPERCASE_WIDTH 126
ENDPROPERTIES
CHARS 1896
STARTCHAR space
ENCODING 32
SWIDTH 200 0
DWIDTH 4 0
BBX 1 1 0 0
BITMAP
00
ENDCHAR
STARTCHAR exclam
ENCODING 33
SWIDTH 340 0
DWIDTH 7 0
BBX 3 14 2 0
BITMAP
E0
E0
E0
E0
E0
E0
E0
C0
C0
00
E0
E0
E0
E0
ENDCHAR
STARTCHAR quotedbl
ENCODING 34
SWIDTH 536 0
DWIDTH 11 0
BBX 7 7 2 7
BITMAP
CE
CE
CE
CE
C6
C6
C6
ENDCHAR
STARTCHAR numbersign
ENCODING 35
SWIDTH 528 0
DWIDTH 11 0
BBX 9 13 1 0
BITMAP
3300
3300
3200
FF80
FF80
2600
6600
FF80
FF80
6600
6400
6400
4C00
ENDCHAR
STARTCHAR dollar
ENCODING 36
SWIDTH 528 0
DWIDTH 11 0
BBX 8 18 1 -3
BITMAP
18
18
3E
7F
E2
E0
F0
7C
3E
0F
07
03
47
FF
7C
18
18
18
ENDCHAR
STARTCHAR percent
ENCODING 37
SWIDTH 857 0
DWIDTH 17 0
BBX 16 14 1 0
BITMAP
0030
7060
F860
CCC0
CCC0
CD80
CD9C
FB3E
7366
0663
0663
0C66
0C3E
181C
ENDCHAR
STARTCHAR ampersand
ENCODING 38
SWIDTH 667 0
DWIDTH 13 0
BBX 13 13 0 0
BITMAP
0F00
1F00
3B80
3980
3B00
1F00
3C38
7E30
7770
E3E0
71E0
7FF8
3F30
ENDCHAR
STARTCHAR quotesingle
ENCODING 39
SWIDTH 300 0
DWIDTH 6 0
BBX 2 7 2 7
BITMAP
C0
C0
C0
C0
C0
C0
C0
ENDCHAR
STARTCHAR parenleft
ENCODING 40
SWIDTH 344 0
DWIDTH 7 0
BBX 5 18 1 -3
BITMAP
10
38
30
70
60
60
60
E0
E0
E0
E0
60
60
60
70
30
38
10
ENDCHAR
STARTCHAR parenright
ENCODING 41
SWIDTH 344 0
DWIDTH 7 0
BBX 4 18 1 -3
BITMAP
40
E0
60
70
30
30
30
30
30
30
30
30
30
30
70
60
E0
40
ENDCHAR
STARTCHAR asterisk
ENCODING 42
SWIDTH 457 0
DWIDTH 9 0
BBX 7 7 1 7
BITMAP
10
18
FE
FE
38
7C
64
ENDCHAR
STARTCHAR plus
ENCODING 43
SWIDTH 528 0
DWIDTH 11 0
BBX 9 10 1 2
BITMAP
1800
1800
1800
1800
FF80
FF80
1800
1800
1800
1800
ENDCHAR
STARTCHAR comma
ENCODING 44
SWIDTH 300 0
DWIDTH 6 0
BBX 4 7 1 -4
BITMAP
60
F0
70
30
30
E0
C0
ENDCHAR
STARTCHAR hyphen
ENCODING 45
SWIDTH 332 0
DWIDTH 7 0
BBX 5 2 1 4
BITMAP
F8
F8
ENDCHAR
STARTCHAR period
ENCODING 46
SWIDTH 300 0
DWIDTH 6 0
BBX 4 4 1 0
BITMAP
60
F0
F0
60
ENDCHAR
STARTCHAR slash
ENCODING 47
SWIDTH 339 0
DWIDTH 7 0
BBX 6 17 0 -3
BITMAP
0C
0C
0C
18
18
18
18
10
30
30
30
20
60
60
60
60
C0
ENDCHAR
STARTCHAR zero
ENCODING 48
SWIDTH 528 0
DWIDTH 11 0
BBX 9 13 1 0
BITMAP
3C00
7E00
E700
E300
E380
E380
E380
E380
E380
E300
6700
7E00
3C00
ENDCHAR
STARTCHAR one
ENCODING 49
SWIDTH 528 0
DWIDTH 11 0
BBX 8 13 1 0
BITMAP
1C
3C
7C
7C
1C
1C
1C
1C
1C
1C
1C
FF
FF
ENDCHAR
STARTCHAR two
ENCODING 50
SWIDTH 528 0
DWIDTH 11 0
BBX 9 13 1 0
BITMAP
7C00
FE00
C700
0700
0700
0700
0E00
0E00
1C00
3800
7800
FF80
FF80
ENDCHAR
STARTCHAR three
ENCODING 51
SWIDTH 528 0
DWIDTH 11 0
BBX 10 13 0 0
BITMAP
3E00
7F80
2380
0380
0380
1F00
1F00
0380
01C0
01C0
6380
FF80
3E00
ENDCHAR
STARTCHAR four
ENCODING 52
SWIDTH 528 0
DWIDTH 11 0
BBX 10 13 0 0
BITMAP
0780
0F80
0F80
1F80
3B80
3B80
7380
6380
FFC0
FFC0
0380
0380
0380
ENDCHAR
STARTCHAR five
ENCODING 53
SWIDTH 528 0
DWIDTH 11 0
BBX 10 13 0 0
BITMAP
3F80
3F80
3000
3000
3000
3F00
7F80
2380
01C0
01C0
6380
FF80
3E00
ENDCHAR
STARTCHAR six
ENCODING 54
SWIDTH 528 0
DWIDTH 11 0
BBX 9 13 1 0
BITMAP
1E00
3F80
7100
E000
E000
FE00
FF00
E380
E380
E380
6380
7F00
1E00
ENDCHAR
STARTCHAR seven
ENCODING 55
SWIDTH 528 0
DWIDTH 11 0
BBX 9 13 1 0
BITMAP
FF80
FF00
0700
0600
0E00
0C00
1C00
1C00
1800
1800
3800
3800
3800
ENDCHAR
STARTCHAR eight
ENCODING 56
SWIDTH 528 0
DWIDTH 11 0
BBX 9 13 1 0
BITMAP
3E00
7F00
E300
E300
F300
7E00
3E00
6F00
C380
C380
E380
7F00
3E00
ENDCHAR
STARTCHAR nine
ENCODING 57
SWIDTH 528 0
DWIDTH 11 0
BBX 9 13 1 0
BITMAP
3C00
7E00
E700
C300
C380
E780
FF80
7B80
0300
0700
4700
FE00
7C00
ENDCHAR
STARTCHAR colon
ENCODING 58
SWIDTH 300 0
DWIDTH 6 0
BBX 4 10 1 0
BITMAP
60
F0
F0
60
00
00
60
F0
F0
60
ENDCHAR
STARTCHAR semicolon
ENCODING 59
SWIDTH 300 0
DWIDTH 6 0
BBX 4 14 1 -4
BITMAP
60
F0
F0
60
00
00
00
60
F0
70
30
30
E0
C0
ENDCHAR
STARTCHAR less
ENCODING 60
SWIDTH 528 0
DWIDTH 11 0
BBX 9 9 1 2
BITMAP
0080
0780
3F80
F800
E000
F800
3F80
0780
0080
ENDCHAR
STARTCHAR equal
ENCODING 61
SWIDTH 528 0
DWIDTH 11 0
BBX 9 6 1 4
BITMAP
FF80
FF80
0000
0000
FF80
FF80
ENDCHAR
STARTCHAR greater
ENCODING 62
SWIDTH 528 0
DWIDTH 11 0
BBX 9 9 1 2
BITMAP
8000
F000
FC00
1F80
0380
1F80
FC00
F000
8000
ENDCHAR
STARTCHAR question
ENCODING 63
SWIDTH 463 0
DWIDTH 9 0
BBX 7 13 1 0
BITMAP
7C
FE
4E
06
0E
1C
38
38
00
38
38
38
38
ENDCHAR
STARTCHAR at
ENCODING 64
SWIDTH 903 0
DWIDTH 18 0
BBX 16 17 1 -4
BITMAP
03F0
0FFC
1C0E
3806
73B3
67F3
C663
CE63
CC63
CEE7
CFFE
C73C
6000
7000
3820
1FE0
07C0
ENDCHAR
STARTCHAR A
ENCODING 65
SWIDTH 573 0
DWIDTH 11 0
BBX 12 13 0 0
BITMAP
0F00
1F00
1F00
1B80
1B80
3B80
39C0
31C0
7FC0
7FC0
70E0
E0E0
E0F0
ENDCHAR
STARTCHAR B
ENCODING 66
SWIDTH 605 0
DWIDTH 12 0
BBX 9 13 2 0
BITMAP
FE00
FF00
FF80
C380
C300
FF00
FF00
C380
C180
C380
FF80
FF80
FE00
ENDCHAR
STARTCHAR C
ENCODING 67
SWIDTH 582 0
DWIDTH 12 0
BBX 10 13 1 0
BITMAP
0F00
3FC0
7FC0
7080
E000
E000
E000
E000
E000
F080
7FC0
3FC0
1F00
ENDCHAR
STARTCHAR D
ENCODING 68
SWIDTH 635 0
DWIDTH 13 0
BBX 10 13 2 0
BITMAP
FC00
FF00
FF80
C780
C3C0
C1C0
C1C0
C1C0
C3C0
C780
FF80
FF00
FC00
ENDCHAR
STARTCHAR E
ENCODING 69
SWIDTH 548 0
DWIDTH 11 0
BBX 8 13 2 0
BITMAP
FF
FF
FF
C0
C0
C0
FE
FE
C0
C0
FF
FF
FF
ENDCHAR
STARTCHAR F
ENCODING 70
SWIDTH 524 0
DWIDTH 10 0
BBX 8 13 2 0
BITMAP
FF
FF
FF
C0
C0
C0
FE
FE
C0
C0
C0
C0
C0
ENDCHAR
STARTCHAR G
ENCODING 71
SWIDTH 638 0
DWIDTH 13 0
BBX 11 13 1 0
BITMAP
0F80
3FC0
7FC0
7080
E000
E000
E3E0
E3E0
E0E0
F0E0
7FE0
3FE0
0F80
ENDCHAR
STARTCHAR H
ENCODING 72
SWIDTH 674 0
DWIDTH 13 0
BBX 10 13 2 0
BITMAP
C1C0
C1C0
C1C0
C1C0
C1C0
FFC0
FFC0
FFC0
C1C0
C1C0
C1C0
C1C0
C1C0
ENDCHAR
STARTCHAR I
ENCODING 73
SWIDTH 301 0
DWIDTH 6 0
BBX 2 13 2 0
BITMAP
C0
C0
C0
C0
C0
C0
C0
C0
C0
C0
C0
C0
C0
ENDCHAR
STARTCHAR J
ENCODING 74
SWIDTH 509 0
DWIDTH 10 0
BBX 9 13 0 0
BITMAP
0380
0380
0380
0380
0380
0380
0380
0380
0380
6780
FF00
7F00
3E00
ENDCHAR
STARTCHAR K
ENCODING 75
SWIDTH 614 0
DWIDTH 12 0
BBX 10 13 2 0
BITMAP
C3C0
C780
C700
CE00
DC00
FC00
FE00
FE00
E700
C700
C380
C3C0
C1C0
ENDCHAR
STARTCHAR L
ENCODING 76
SWIDTH 518 0
DWIDTH 10 0
BBX 8 13 2 0
BITMAP
C0
C0
C0
C0
C0
C0
C0
C0
C0
C0
FF
FF
FF
ENDCHAR
STARTCHAR M
ENCODING 77
SWIDTH 762 0
DWIDTH 15 0
BBX 12 13 2 0
BITMAP
E0F0
E0F0
F0F0
F1F0
F1F0
F9F0
DB70
DB70
CF70
CE70
CE70
C670
C070
ENDCHAR
STARTCHAR N
ENCODING 78
SWIDTH 665 0
DWIDTH 13 0
BBX 10 13 2 0
BITMAP
E1C0
E1C0
F1C0
F1C0
F9C0
D9C0
DDC0
CDC0
CFC0
C7C0
C7C0
C3C0
C3C0
ENDCHAR
STARTCHAR O
ENCODING 79
SWIDTH 684 0
DWIDTH 14 0
BBX 12 13 1 0
BITMAP
1F00
3FC0
7FE0
F0E0
E0F0
E070
E070
E070
E0F0
F1E0
7FE0
3FC0
1F00
ENDCHAR
STARTCHAR P
ENCODING 80
SWIDTH 596 0
DWIDTH 12 0
BBX 9 13 2 0
BITMAP
FE00
FF00
FF80
C380
C380
C380
C380
FF00
FE00
C000
C000
C000
C000
ENDCHAR
STARTCHAR Q
ENCODING 81
SWIDTH 684 0
DWIDTH 14 0
BBX 12 17 1 -4
BITMAP
1F00
3FC0
7FE0
F0E0
E0F0
E070
E070
E070
E0F0
F1E0
7FE0
3FC0
1F80
0700
07F0
03F0
00F0
ENDCHAR
STARTCHAR R
ENCODING 82
SWIDTH 613 0
DWIDTH 12 0
BBX 10 13 2 0
BITMAP
FE00
FF00
FF80
C380
C380
C380
FF00
FE00
CE00
C700
C780
C380
C3C0
ENDCHAR
STARTCHAR S
ENCODING 83
SWIDTH 556 0
DWIDTH 11 0
BBX 9 13 1 0
BITMAP
3E00
7F80
FF80
E100
F000
7C00
3F00
0F80
0380
6380
FF80
FF80
3E00
ENDCHAR
STARTCHAR T
ENCODING 84
SWIDTH 556 0
DWIDTH 11 0
BBX 11 13 0 0
BITMAP
FFE0
FFE0
FFE0
0E00
0E00
0E00
0E00
0E00
0E00
0E00
0E00
0E00
0E00
ENDCHAR
STARTCHAR U
ENCODING 85
SWIDTH 665 0
DWIDTH 13 0
BBX 11 13 1 0
BITMAP
E0E0
E0E0
E0E0
E0E0
E0E0
E0E0
E0E0
E0E0
70E0
71E0
7FC0
3FC0
1F00
ENDCHAR
STARTCHAR V
ENCODING 86
SWIDTH 556 0
DWIDTH 11 0
BBX 11 13 0 0
BITMAP
E0E0
E0E0
70E0
71C0
71C0
31C0
3980
3B80
3B80
1B00
1F00
1F00
0E00
ENDCHAR
STARTCHAR W
ENCODING 87
SWIDTH 813 0
DWIDTH 16 0
BBX 16 13 0 0
BITMAP
E1C7
71C7
73C7
73C6
73E6
73EE
776E
366E
3E6C
3E7C
3E7C
3E3C
1C3C
ENDCHAR
STARTCHAR X
ENCODING 88
SWIDTH 567 0
DWIDTH 11 0
BBX 11 13 0 0
BITMAP
F0E0
71C0
39C0
3B80
1F80
1F00
0F00
1F00
1B80
3B80
39C0
71C0
F0E0
ENDCHAR
STARTCHAR Y
ENCODING 89
SWIDTH 525 0
DWIDTH 11 0
BBX 11 13 0 0
BITMAP
E1E0
71C0
7180
7380
3B80
3F00
1F00
1E00
0E00
0E00
0E00
0E00
0E00
ENDCHAR
STARTCHAR Z
ENCODING 90
SWIDTH 541 0
DWIDTH 11 0
BBX 9 13 1 0
BITMAP
FF80
FF80
FF80
0700
0E00
0E00
1C00
3800
3000
7000
FF80
FF80
FF80
ENDCHAR
STARTCHAR bracketleft
ENCODING 91
SWIDTH 344 0
DWIDTH 7 0
BBX 4 17 2 -3
BITMAP
F0
F0
C0
C0
C0
C0
C0
C0
C0
C0
C0
C0
C0
C0
C0
F0
F0
ENDCHAR
STARTCHAR backslash
ENCODING 92
SWIDTH 339 0
DWIDTH 7 0
BBX 6 17 1 -3
BITMAP
C0
C0
C0
C0
60
60
60
60
30
30
30
30
10
18
18
18
1C
ENDCHAR
STARTCHAR bracketright
ENCODING 93
SWIDTH 344 0
DWIDTH 7 0
BBX 4 17 1 -3
BITMAP
F0
F0
30
30
30
30
30
30
30
30
30
30
30
30
30
F0
F0
ENDCHAR
STARTCHAR asciicircum
ENCODING 94
SWIDTH 528 0
DWIDTH 11 0
BBX 9 8 1 5
BITMAP
1C00
1C00
3C00
3E00
7600
6700
6300
E380
ENDCHAR
STARTCHAR underscore
ENCODING 95
SWIDTH 500 0
DWIDTH 10 0
BBX 10 2 0 -3
BITMAP
FFC0
FFC0
ENDCHAR
STARTCHAR grave
ENCODING 96
SWIDTH 555 0
DWIDTH 11 0
BBX 5 5 2 11
BITMAP
40
E0
F0
38
10
ENDCHAR
STARTCHAR a
ENCODING 97
SWIDTH 527 0
DWIDTH 11 0
BBX 8 10 1 0
BITMAP
3E
FF
47
07
1F
7F
E7
E7
FF
7B
ENDCHAR
STARTCHAR b
ENCODING 98
SWIDTH 573 0
DWIDTH 11 0
BBX 10 14 1 0
BITMAP
E000
E000
E000
E000
EF00
FF80
F380
E1C0
E1C0
E1C0
E380
F380
FF80
EE00
ENDCHAR
STARTCHAR c
ENCODING 99
SWIDTH 467 0
DWIDTH 9 0
BBX 8 10 1 0
BITMAP
1E
7F
F4
E0
E0
E0
E0
F2
7F
3E
ENDCHAR
STARTCHAR d
ENCODING 100
SWIDTH 573 0
DWIDTH 11 0
BBX 9 14 1 0
BITMAP
0380
0380
0380
0380
3F80
7F80
F380
E380
E380
E380
E380
E380
7F80
3D80
ENDCHAR
STARTCHAR e
ENCODING 101
SWIDTH 518 0
DWIDTH 10 0
BBX 9 10 1 0
BITMAP
3E00
7F00
E300
E380
FF80
FF80
E000
E200
7F00
3E00
ENDCHAR
STARTCHAR f
ENCODING 102
SWIDTH 341 0
DWIDTH 7 0
BBX 7 14 0 0
BITMAP
1E
3E
38
38
FE
FE
38
38
38
38
38
38
38
38
ENDCHAR
STARTCHAR g
ENCODING 103
SWIDTH 534 0
DWIDTH 11 0
BBX 9 14 1 -4
BITMAP
3F80
7F80
E700
E700
E700
7E00
7C00
E000
FF00
7F80
C180
C380
FF80
7E00
ENDCHAR
STARTCHAR h
ENCODING 104
SWIDTH 571 0
DWIDTH 11 0
BBX 9 14 1 0
BITMAP
E000
E000
E000
E000
EF00
FF80
F380
E380
E380
E380
E380
E380
E380
E380
ENDCHAR
STARTCHAR i
ENCODING 105
SWIDTH 276 0
DWIDTH 6 0
BBX 3 14 1 0
BITMAP
E0
E0
E0
00
E0
E0
E0
E0
E0
E0
E0
E0
E0
E0
ENDCHAR
STARTCHAR j
ENCODING 106
SWIDTH 278 0
DWIDTH 6 0
BBX 6 18 -1 -4
BITMAP
38
3C
18
00
38
38
38
38
38
38
38
38
38
38
38
38
F8
F0
ENDCHAR
STARTCHAR k
ENCODING 107
SWIDTH 548 0
DWIDTH 11 0
BBX 10 14 1 0
BITMAP
E000
E000
E000
E000
E3C0
E700
EE00
EE00
FC00
FE00
F700
E700
E380
E3C0
ENDCHAR
STARTCHAR l
ENCODING 108
SWIDTH 286 0
DWIDTH 6 0
BBX 4 14 1 0
BITMAP
E0
E0
E0
E0
E0
E0
E0
E0
E0
E0
E0
E0
70
70
ENDCHAR
STARTCHAR m
ENCODING 109
SWIDTH 857 0
DWIDTH 17 0
BBX 15 10 1 0
BITMAP
EF3C
FFFC
F3CE
E38E
E38E
E38E
E38E
E38E
E38E
E38E
ENDCHAR
STARTCHAR n
ENCODING 110
SWIDTH 572 0
DWIDTH 11 0
BBX 9 10 1 0
BITMAP
EF00
FF80
F380
E380
E380
E380
E380
E380
E380
E380
ENDCHAR
STARTCHAR o
ENCODING 111
SWIDTH 555 0
DWIDTH 11 0
BBX 9 10 1 0
BITMAP
3E00
7F00
E380
E380
E380
E380
E380
E380
7F00
3E00
ENDCHAR
STARTCHAR p
ENCODING 112
SWIDTH 573 0
DWIDTH 11 0
BBX 10 14 1 -4
BITMAP
EF00
FF80
F380
E1C0
E1C0
E1C0
E380
F380
FF80
EE00
E000
E000
E000
E000
ENDCHAR
STARTCHAR q
ENCODING 113
SWIDTH 573 0
DWIDTH 11 0
BBX 9 13 1 -3
BITMAP
3D80
7F80
F380
E380
E380
E380
E380
E380
7F80
3F80
0380
0380
0380
ENDCHAR
STARTCHAR r
ENCODING 114
SWIDTH 398 0
DWIDTH 8 0
BBX 7 10 1 0
BITMAP
EE
FE
FE
F0
E0
E0
E0
E0
E0
E0
ENDCHAR
STARTCHAR s
ENCODING 115
SWIDTH 443 0
DWIDTH 9 0
BBX 8 10 0 0
BITMAP
3E
7F
72
70
7E
1F
07
67
7F
BE
ENDCHAR
STARTCHAR t
ENCODING 116
SWIDTH 383 0
DWIDTH 8 0
BBX 7 13 0 0
BITMAP
38
38
38
FE
FE
38
38
38
38
38
38
3E
1E
ENDCHAR
STARTCHAR u
ENCODING 117
SWIDTH 568 0
DWIDTH 11 0
BBX 9 10 1 0
BITMAP
E380
E380
E380
E380
E380
E380
E380
E780
7F80
7980
ENDCHAR
STARTCHAR v
ENCODING 118
SWIDTH 523 0
DWIDTH 10 0
BBX 10 10 0 0
BITMAP
E1C0
71C0
7180
7380
3380
3B00
3B00
1F00
1E00
1E00
ENDCHAR
STARTCHAR w
ENCODING 119
SWIDTH 776 0
DWIDTH 16 0
BBX 15 10 0 0
BITMAP
F38E
738E
73CC
73CC
36DC
36DC
3EF8
3E78
1E78
1C78
ENDCHAR
STARTCHAR x
ENCODING 120
SWIDTH 514 0
DWIDTH 10 0
BBX 10 10 0 0
BITMAP
F1C0
7380
3B00
1F00
1E00
1E00
3F00
3700
7380
F1C0
ENDCHAR
STARTCHAR y
ENCODING 121
SWIDTH 521 0
DWIDTH 10 0
BBX 10 14 0 -4
BITMAP
E1C0
71C0
7180
3380
3B80
3B00
1B00
1F00
0E00
0E00
0E00
1C00
7C00
7000
ENDCHAR
STARTCHAR z
ENCODING 122
SWIDTH 460 0
DWIDTH 9 0
BBX 8 10 1 0
BITMAP
FF
FE
0E
1C
3C
38
70
70
FF
FF
ENDCHAR
STARTCHAR braceleft
ENCODING 123
SWIDTH 344 0
DWIDTH 7 0
BBX 5 17 1 -3
BITMAP
38
78
70
70
70
70
70
E0
E0
70
70
70
70
70
70
78
38
ENDCHAR
STARTCHAR bar
ENCODING 124
SWIDTH 268 0
DWIDTH 5 0
BBX 2 20 2 -5
BITMAP
C0
C0
C0
C0
C0
C0
C0
C0
C0
C0
C0
C0
C0
C0
C0
C0
C0
C0
C0
C0
ENDCHAR
STARTCHAR braceright
ENCODING 125
SWIDTH 344 0
DWIDTH 7 0
BBX 5 17 1 -3
BITMAP
E0
F0
70
70
70
70
70
38
38
70
70
70
70
70
70
F0
E0
ENDCHAR
STARTCHAR asciitilde
ENCODING 126
SWIDTH 528 0
DWIDTH 11 0
BBX 9 3 1 5
BITMAP
7900
FF80
8F00
ENDCHAR
ENDFONT
