STARTFONT 2.1
FONT -FontForge-Source Sans Pro Black-Black-R-Normal-SansPro--70-670-75-75-P-374-ISO10646-1
SIZE 67 75 75
FONTBOUNDINGBOX 183 95 -32 -23
COMMENT "Generated by fontforge, http://fontforge.sourceforge.net"
COMMENT "Copyright 2010, 2012, 2014 Adobe Systems Incorporated (http://www.adobe.com/), with Reserved Font Name `Source'."
STARTPROPERTIES 40
FOUNDRY "FontForge"
FAMILY_NAME "Source Sans Pro Black"
WEIGHT_NAME "Black"
SLANT "R"
SETWIDTH_NAME "Normal"
ADD_STYLE_NAME "SansPro"
PIXEL_SIZE 70
POINT_SIZE 670
RESOLUTION_X 75
RESOLUTION_Y 75
SPACING "P"
AVERAGE_WIDTH 374
CHARSET_REGISTRY "ISO10646"
CHARSET_ENCODING "1"
FONTNAME_REGISTRY ""
CHARSET_COLLECTIONS "ISO8859-2 ISO8859-5 ISO8859-7 ISO8859-9 ISO8859-4 ISO10646-1"
FONT_NAME "SourceSansPro-Black"
FACE_NAME "Source Sans Pro Black"
COPYRIGHT "Copyright 2010, 2012, 2014 Adobe Systems Incorporated (http://www.adobe.com/), with Reserved Font Name `Source'."
FONT_VERSION "2.021;PS 2.000;hotconv 1.0.86;makeotf.lib2.5.63406"
FONT_ASCENT 53
FONT_DESCENT 17
UNDERLINE_POSITION -7
UNDERLINE_THICKNESS 4
X_HEIGHT 34
CAP_HEIGHT 45
RAW_ASCENT 750
RAW_DESCENT 250
NORM_SPACE 14
RELATIVE_WEIGHT 90
RELATIVE_SETWIDTH 50
SUPERSCRIPT_X 0
SUPERSCRIPT_Y 24
SUPERSCRIPT_SIZE 42
SUBSCRIPT_X 0
SUBSCRIPT_Y 5
SUBSCRIPT_SIZE 42
FIGURE_WIDTH 38
AVG_LOWERCASE_WIDTH 384
AVG_UPPERCASE_WIDTH 455
ENDPROPERTIES
CHARS 1896
STARTCHAR space
ENCODING 32
SWIDTH 200 0
DWIDTH 14 0
BBX 1 1 0 0
BITMAP
00
ENDCHAR
STARTCHAR exclam
ENCODING 33
SWIDTH 360 0
DWIDTH 25 0
BBX 14 48 6 -1
BITMAP
7FF8
7FF8
7FF8
7FF8
7FF0
7FF0
7FF0
7FF0
7FF0
7FF0
7FF0
7FF0
7FF0
7FF0
7FF0
7FF0
3FF0
3FF0
3FF0
3FE0
3FE0
3FE0
3FE0
3FE0
3FE0
3FE0
3FE0
3FE0
1FE0
1FE0
0000
0000
0000
0F80
3FE0
7FF0
7FF8
FFF8
FFF8
FFFC
FFFC
FFFC
FFF8
FFF8
7FF8
7FF0
3FE0
0F80
ENDCHAR
STARTCHAR quotedbl
ENCODING 34
SWIDTH 580 0
DWIDTH 41 0
BBX 30 25 5 23
BITMAP
FFF03FFC
FFF03FFC
FFF03FFC
FFF01FFC
FFF01FFC
FFF01FFC
FFF01FFC
FFF01FFC
7FF01FFC
7FF01FFC
7FF01FFC
7FF01FFC
7FE01FFC
7FE01FFC
7FE01FF8
7FE00FF8
3FE00FF8
3FE00FF8
3FC00FF8
3FC00FF8
3FC00FF0
3FC007F0
1FC007F0
1FC007F0
1FC007F0
ENDCHAR
STARTCHAR numbersign
ENCODING 35
SWIDTH 540 0
DWIDTH 38 0
BBX 34 45 2 0
BITMAP
007F01FC00
007F01F800
007F03F800
007F03F800
007F03F800
007F03F800
007E03F800
007E03F800
00FE03F800
00FE03F000
00FE07F000
3FFFFFFFC0
3FFFFFFFC0
3FFFFFFFC0
3FFFFFFFC0
3FFFFFFFC0
3FFFFFFFC0
3FFFFFFFC0
3FFFFFFFC0
01FC0FE000
01FC0FE000
01FC0FE000
01F80FE000
03F80FE000
03F80FC000
FFFFFFFF00
FFFFFFFF00
FFFFFFFF00
FFFFFFFF00
FFFFFFFF00
FFFFFFFF00
FFFFFFFF00
FFFFFFFF00
07F01FC000
07F01F8000
07F03F8000
07F03F8000
07F03F8000
07F03F8000
07E03F8000
0FE03F8000
0FE03F8000
0FE07F0000
0FE07F0000
0FE07F0000
ENDCHAR
STARTCHAR dollar
ENCODING 36
SWIDTH 540 0
DWIDTH 38 0
BBX 32 60 2 -8
BITMAP
0007F800
0007F800
0007F800
0007F800
0007F800
0007F800
0007F800
001FFE00
007FFFC0
01FFFFF0
03FFFFF8
07FFFFFC
0FFFFFFE
0FFFFFFC
1FFFFFFC
1FFFFFF8
1FFE07F0
3FFC01E0
3FFC00C0
3FFC0000
3FFC0000
3FFC0000
3FFE0000
3FFF8000
1FFFE000
1FFFF800
0FFFFE00
0FFFFF00
07FFFFC0
03FFFFE0
00FFFFF0
007FFFF8
001FFFFC
0007FFFC
0001FFFE
00007FFE
00003FFE
00001FFF
00000FFF
00000FFF
04000FFE
07000FFE
0F801FFE
1FF03FFE
1FFFFFFE
3FFFFFFC
7FFFFFFC
7FFFFFF8
FFFFFFF0
3FFFFFE0
0FFFFFC0
01FFFF00
003FF800
0007F800
0007F800
0007F800
0007F800
0007F800
0007F800
0007F800
ENDCHAR
STARTCHAR percent
ENCODING 37
SWIDTH 870 0
DWIDTH 61 0
BBX 57 47 2 -1
BITMAP
00FE000007F00000
03FF800007E00000
0FFFC0000FE00000
1FFFE0000FC00000
3FFFF0001FC00000
3FFFF8003F800000
7FFFF8003F800000
7FC7FC007F000000
FF83FC007F000000
FF03FC00FE000000
FF03FE00FE000000
FF01FE01FC000000
FF01FE01FC000000
FF01FE03F8000000
FF01FE03F8000000
FF01FE07F0000000
FF01FE07F0000000
FF01FE0FE0000000
FF03FE0FC03F8000
FF03FC1FC0FFE000
FF83FC1F83FFF800
7FC7FC3F87FFFC00
7FFFF83F07FFFC00
3FFFF87F0FFFFE00
3FFFF07E1FFFFF00
1FFFE0FE1FF1FF00
0FFFC0FC1FE0FF00
03FF81FC3FE0FF80
00FE01F83FC07F80
000003F83FC07F80
000003F03FC07F80
000007F03FC07F80
00000FE03FC07F80
00000FE03FC07F80
00001FC03FC07F80
00001FC03FC07F80
00003F803FC07F80
00003F803FE0FF80
00007F001FE0FF00
00007F001FF1FF00
0000FE001FFFFF00
0000FE000FFFFE00
0001FC0007FFFC00
0001FC0007FFFC00
0003F80003FFF800
0003F00000FFE000
0007F000003F8000
ENDCHAR
STARTCHAR ampersand
ENCODING 38
SWIDTH 690 0
DWIDTH 48 0
BBX 45 47 2 -1
BITMAP
0003FC000000
001FFF800000
003FFFC00000
007FFFE00000
00FFFFF00000
01FFFFF80000
03FFFFF80000
03FFFFFC0000
07FF8FFC0000
07FE07FC0000
07FE07FC0000
07FE07FC0000
07FE07FC0000
07FE0FFC0000
07FE1FF80000
07FE3FF80000
07FF7FF00000
03FFFFF00000
03FFFFE00000
01FFFFC00000
01FFFF803FF8
01FFFF007FF0
03FFFC007FF0
07FFF8007FF0
0FFFFC00FFE0
1FFFFE00FFE0
3FFFFF01FFC0
7FFFFFC1FFC0
7FFFFFE3FF80
FFFFFFF7FF80
FFF3FFFFFF00
FFE1FFFFFF00
FFE0FFFFFE00
FFE07FFFFC00
FFE03FFFFC00
FFE01FFFFC00
FFF007FFFF80
FFFC0FFFFFF8
FFFFFFFFFFF8
7FFFFFFFFFF0
7FFFFFFFFFF0
3FFFFFFFFFF0
1FFFFFFFFFE0
0FFFFFF9FFE0
07FFFFE07FE0
01FFFF800FE0
003FF80000C0
ENDCHAR
STARTCHAR quotesingle
ENCODING 39
SWIDTH 320 0
DWIDTH 22 0
BBX 12 25 5 23
BITMAP
FFF0
FFF0
FFF0
FFF0
FFF0
FFF0
FFF0
FFF0
7FF0
7FF0
7FF0
7FF0
7FE0
7FE0
7FE0
7FE0
3FE0
3FE0
3FC0
3FC0
3FC0
3FC0
1FC0
1FC0
1FC0
ENDCHAR
STARTCHAR parenleft
ENCODING 40
SWIDTH 360 0
DWIDTH 25 0
BBX 17 64 5 -13
BITMAP
004000
00F800
00FE00
01FF80
03FF00
03FE00
07FE00
07FC00
07FC00
0FFC00
0FF800
1FF800
1FF000
1FF000
3FF000
3FF000
3FE000
7FE000
7FE000
7FE000
7FC000
7FC000
FFC000
FFC000
FFC000
FFC000
FFC000
FFC000
FFC000
FF8000
FF8000
FF8000
FF8000
FF8000
FF8000
FFC000
FFC000
FFC000
FFC000
FFC000
FFC000
FFC000
7FC000
7FC000
7FE000
7FE000
7FE000
3FE000
3FF000
3FF000
1FF000
1FF000
1FF800
0FF800
0FFC00
07FC00
07FC00
07FE00
03FE00
03FF00
01FF00
00FE80
00F800
004000
ENDCHAR
STARTCHAR parenright
ENCODING 41
SWIDTH 360 0
DWIDTH 25 0
BBX 16 64 4 -13
BITMAP
0200
0F00
7F80
FF80
FFC0
7FC0
7FE0
3FE0
3FF0
1FF0
1FF0
1FF8
0FF8
0FFC
0FFC
07FC
07FC
07FE
07FE
03FE
03FE
03FF
03FF
03FF
03FF
03FF
01FF
01FF
01FF
01FF
01FF
01FF
01FF
01FF
01FF
01FF
01FF
01FF
03FF
03FF
03FF
03FF
03FF
03FE
03FE
07FE
07FE
07FC
07FC
0FFC
0FFC
0FF8
1FF8
1FF0
1FF0
3FF0
3FE0
7FE0
7FC0
FFC0
FF80
7F80
1F00
0300
ENDCHAR
STARTCHAR asterisk
ENCODING 42
SWIDTH 472 0
DWIDTH 33 0
BBX 29 27 2 23
BITMAP
001FC000
001FC000
001FC000
001FC000
001FC000
001FC000
001FC000
381FC0E0
7FFFFFF0
7FFFFFF0
7FFFFFF0
FFFFFFF8
FFFFFFF8
3FFFFFE0
0FFFFF80
03FFFE00
00FFF800
01FFFC00
01FFFC00
03FFFE00
03FFFE00
07FDFF00
0FF8FF80
0FF07F80
07E03F00
03C01E00
01800C00
ENDCHAR
STARTCHAR plus
ENCODING 43
SWIDTH 540 0
DWIDTH 38 0
BBX 33 35 2 6
BITMAP
0007F80000
0007F80000
0007F80000
0007F80000
0007F80000
0007F80000
0007F80000
0007F80000
0007F80000
0007F80000
0007F80000
0007F80000
0007F80000
FFFFFFFF80
FFFFFFFF80
FFFFFFFF80
FFFFFFFF80
FFFFFFFF80
FFFFFFFF80
FFFFFFFF80
FFFFFFFF80
FFFFFFFF80
0007F80000
0007F80000
0007F80000
0007F80000
0007F80000
0007F80000
0007F80000
0007F80000
0007F80000
0007F80000
0007F80000
0007F80000
0007F80000
ENDCHAR
STARTCHAR comma
ENCODING 44
SWIDTH 320 0
DWIDTH 22 0
BBX 16 28 3 -14
BITMAP
03E0
0FF8
1FFC
3FFE
7FFE
7FFF
7FFF
7FFF
7FFF
3FFF
3FFF
0FFF
07FF
007F
007F
00FF
00FF
01FE
03FE
07FC
1FFC
FFF8
7FF0
7FE0
7FC0
3F00
3C00
3000
ENDCHAR
STARTCHAR hyphen
ENCODING 45
SWIDTH 340 0
DWIDTH 24 0
BBX 18 9 3 13
BITMAP
FFFFC0
FFFFC0
FFFFC0
FFFFC0
FFFFC0
FFFFC0
FFFFC0
FFFFC0
FFFFC0
ENDCHAR
STARTCHAR period
ENCODING 46
SWIDTH 320 0
DWIDTH 22 0
BBX 14 15 4 -1
BITMAP
07C0
1FF0
3FF8
7FF8
7FFC
FFFC
FFFC
FFFC
FFFC
FFFC
7FFC
7FF8
3FF8
1FF0
0FC0
ENDCHAR
STARTCHAR slash
ENCODING 47
SWIDTH 334 0
DWIDTH 23 0
BBX 20 61 1 -11
BITMAP
000FF0
000FF0
000FF0
000FE0
001FE0
001FE0
001FE0
001FE0
001FC0
003FC0
003FC0
003FC0
003F80
003F80
007F80
007F80
007F80
007F00
007F00
00FF00
00FF00
00FF00
00FE00
00FE00
01FE00
01FE00
01FE00
01FC00
01FC00
03FC00
03FC00
03FC00
03F800
03F800
07F800
07F800
07F800
07F000
07F000
0FF000
0FF000
0FF000
0FE000
1FE000
1FE000
1FE000
1FE000
1FC000
3FC000
3FC000
3FC000
3FC000
3F8000
7F8000
7F8000
7F8000
7F8000
7F0000
FF0000
FF0000
FF0000
ENDCHAR
STARTCHAR zero
ENCODING 48
SWIDTH 540 0
DWIDTH 38 0
BBX 33 46 2 -1
BITMAP
0007F80000
003FFF0000
00FFFF8000
01FFFFE000
03FFFFF000
07FFFFF800
0FFFFFF800
0FFFFFFC00
1FFFFFFE00
1FFE1FFE00
3FFC0FFE00
3FF807FF00
3FF807FF00
7FF807FF00
7FF007FF80
7FF003FF80
7FF003FF80
7FF003FF80
7FF003FF80
FFF003FF80
FFF003FF80
FFF003FF80
FFF003FF80
FFF003FF80
FFF003FF80
FFF003FF80
FFF003FF80
7FF003FF80
7FF003FF80
7FF003FF80
7FF003FF80
7FF007FF80
7FF807FF00
3FF807FF00
3FF80FFF00
3FFC0FFE00
1FFE1FFE00
1FFFFFFC00
0FFFFFFC00
07FFFFF800
07FFFFF800
03FFFFF000
01FFFFE000
00FFFF8000
003FFF0000
0007F80000
ENDCHAR
STARTCHAR one
ENCODING 49
SWIDTH 540 0
DWIDTH 38 0
BBX 29 44 5 0
BITMAP
001FF800
007FF800
01FFF800
1FFFF800
7FFFF800
7FFFF800
7FFFF800
7FFFF800
7FFFF800
7FFFF800
7FFFF800
007FF800
007FF800
007FF800
007FF800
007FF800
007FF800
007FF800
007FF800
007FF800
007FF800
007FF800
007FF800
007FF800
007FF800
007FF800
007FF800
007FF800
007FF800
007FF800
007FF800
007FF800
007FF800
007FF800
007FF800
FFFFFFF8
FFFFFFF8
FFFFFFF8
FFFFFFF8
FFFFFFF8
FFFFFFF8
FFFFFFF8
FFFFFFF8
FFFFFFF8
ENDCHAR
STARTCHAR two
ENCODING 50
SWIDTH 540 0
DWIDTH 38 0
BBX 33 45 2 0
BITMAP
003FF00000
01FFFE0000
07FFFF0000
0FFFFFC000
3FFFFFE000
7FFFFFF000
FFFFFFF000
7FFFFFF800
3FFFFFF800
1FE0FFFC00
0F803FFC00
07003FFC00
02001FFE00
00001FFE00
00001FFE00
00001FFE00
00001FFC00
00001FFC00
00003FFC00
00003FFC00
00007FF800
00007FF800
0000FFF000
0001FFF000
0003FFE000
0007FFC000
000FFFC000
001FFF8000
001FFF0000
003FFE0000
00FFFE0000
01FFFC0000
03FFF80000
07FFF00000
0FFFE00000
1FFFFFFF80
3FFFFFFF80
7FFFFFFF80
7FFFFFFF80
7FFFFFFF80
7FFFFFFF80
7FFFFFFF80
7FFFFFFF80
7FFFFFFF80
7FFFFFFF80
ENDCHAR
STARTCHAR three
ENCODING 51
SWIDTH 540 0
DWIDTH 38 0
BBX 33 46 1 -1
BITMAP
001FF80000
00FFFF8000
03FFFFE000
0FFFFFF000
1FFFFFF800
3FFFFFFC00
3FFFFFFE00
1FFFFFFE00
0FFFFFFE00
07F03FFF00
03C01FFF00
01800FFF00
01000FFF00
00000FFF00
00000FFF00
00001FFF00
00003FFE00
0000FFFE00
003FFFFC00
003FFFF800
003FFFE000
003FFFC000
003FFFC000
003FFFF000
003FFFF800
003FFFFE00
003FFFFE00
00007FFF00
00001FFF80
000007FF80
000007FF80
000007FF80
000007FF80
060007FF80
070007FF80
0FC00FFF80
1FF03FFF80
3FFFFFFF80
3FFFFFFF00
7FFFFFFE00
FFFFFFFE00
3FFFFFFC00
1FFFFFF000
07FFFFE000
01FFFF8000
003FF80000
ENDCHAR
STARTCHAR four
ENCODING 52
SWIDTH 540 0
DWIDTH 38 0
BBX 35 44 1 0
BITMAP
0001FFFE00
0001FFFE00
0003FFFE00
0007FFFE00
0007FFFE00
000FFFFE00
000FFFFE00
001FFFFE00
001FFFFE00
003FFFFE00
007FEFFE00
007FEFFE00
00FFCFFE00
00FFDFFE00
01FF9FFE00
03FF9FFE00
03FF1FFE00
07FF1FFE00
07FE1FFE00
0FFE1FFE00
0FFC1FFE00
1FFC1FFE00
3FF81FFE00
3FF81FFE00
7FF01FFE00
7FFFFFFFE0
FFFFFFFFE0
FFFFFFFFE0
FFFFFFFFE0
FFFFFFFFE0
FFFFFFFFE0
FFFFFFFFE0
FFFFFFFFE0
FFFFFFFFE0
00001FFE00
00001FFE00
00001FFE00
00001FFE00
00001FFE00
00001FFE00
00001FFE00
00001FFE00
00001FFE00
00001FFE00
ENDCHAR
STARTCHAR five
ENCODING 53
SWIDTH 540 0
DWIDTH 38 0
BBX 32 45 2 -1
BITMAP
0FFFFFFC
0FFFFFFC
0FFFFFFC
0FFFFFFC
0FFFFFFC
0FFFFFFC
0FFFFFFC
0FFFFFFC
0FFFFFFC
0FFFFFFC
0FFC0000
0FFC0000
0FFC0000
1FFC0000
1FFC0000
1FFDFC00
1FFFFF80
1FFFFFE0
1FFFFFF0
1FFFFFF8
1FFFFFFC
1FFFFFFE
1FFFFFFE
0FFFFFFF
03E07FFF
01801FFF
00000FFF
00000FFF
00000FFF
00000FFF
00000FFF
00000FFF
0C000FFF
0E000FFF
1F801FFF
3FE07FFE
7FFFFFFE
7FFFFFFC
FFFFFFFC
FFFFFFF8
7FFFFFF0
1FFFFFE0
0FFFFF80
01FFFE00
003FF000
ENDCHAR
STARTCHAR six
ENCODING 54
SWIDTH 540 0
DWIDTH 38 0
BBX 32 46 3 -1
BITMAP
0003FE00
001FFFC0
007FFFF0
00FFFFFC
01FFFFFE
03FFFFFF
07FFFFFE
0FFFFFFC
1FFFFFF8
1FFF03F0
3FFC00E0
3FF80040
7FF80000
7FF00000
7FF00000
7FF00000
FFE00000
FFE0FE00
FFE3FFC0
FFE7FFF0
FFFFFFF8
FFFFFFFC
FFFFFFFC
FFFFFFFE
FFFFFFFE
FFFFFFFF
FFFC1FFF
FFF80FFF
FFF007FF
FFE007FF
FFE007FF
FFE007FF
7FF007FF
7FF007FF
7FF807FF
3FF80FFF
3FFE1FFE
1FFFFFFE
1FFFFFFE
0FFFFFFC
07FFFFF8
03FFFFF0
01FFFFE0
00FFFFC0
003FFF00
0007F800
ENDCHAR
STARTCHAR seven
ENCODING 55
SWIDTH 540 0
DWIDTH 38 0
BBX 32 44 3 0
BITMAP
FFFFFFFF
FFFFFFFF
FFFFFFFF
FFFFFFFF
FFFFFFFF
FFFFFFFF
FFFFFFFF
FFFFFFFE
FFFFFFFE
FFFFFFFC
00001FF8
00003FF0
00007FF0
00007FE0
0000FFC0
0001FFC0
0001FF80
0003FF80
0003FF00
0007FF00
0007FE00
000FFE00
000FFE00
001FFC00
001FFC00
001FFC00
003FF800
003FF800
003FF800
003FF800
007FF800
007FF800
007FF800
007FF000
007FF000
00FFF000
00FFF000
00FFF000
00FFF000
00FFF000
00FFF000
00FFF000
00FFF000
00FFF000
ENDCHAR
STARTCHAR eight
ENCODING 56
SWIDTH 540 0
DWIDTH 38 0
BBX 32 46 3 -1
BITMAP
000FF800
007FFE00
01FFFF80
07FFFFC0
0FFFFFE0
1FFFFFF0
1FFFFFF8
3FFFFFF8
3FFFFFFC
3FFC3FFC
7FF81FFC
7FF00FFC
7FF00FFC
7FF00FFC
7FF00FFC
3FF80FFC
3FFC0FF8
3FFF1FF0
1FFFFFF0
0FFFFFE0
07FFFFC0
07FFFF00
01FFFFC0
01FFFFE0
07FFFFF0
0FFFFFF8
1FF7FFFC
3FF1FFFE
7FE07FFE
7FE01FFE
FFC00FFF
FFC007FF
FFC007FF
FFC007FF
FFE007FF
FFF00FFF
FFF81FFF
7FFFFFFE
7FFFFFFE
3FFFFFFC
3FFFFFF8
1FFFFFF8
0FFFFFE0
03FFFFC0
00FFFF00
001FF800
ENDCHAR
STARTCHAR nine
ENCODING 57
SWIDTH 540 0
DWIDTH 38 0
BBX 33 46 2 -1
BITMAP
001FF00000
007FFE0000
01FFFF0000
07FFFFC000
0FFFFFE000
1FFFFFF000
1FFFFFF800
3FFFFFF800
3FFFFFFC00
7FFC3FFC00
7FF01FFE00
7FF00FFE00
FFE007FF00
FFE007FF00
FFE007FF00
FFE003FF00
FFE003FF80
FFF007FF80
FFF00FFF80
7FFC3FFF80
7FFFFFFF80
7FFFFFFF80
3FFFFFFF80
3FFFFFFF80
1FFFFFFF80
0FFFFBFF80
07FFF3FF80
01FFE3FF80
007F03FF00
000007FF00
000007FF00
000007FF00
00000FFF00
00000FFE00
01001FFE00
03803FFC00
07E0FFFC00
0FFFFFF800
1FFFFFF800
3FFFFFF000
7FFFFFE000
3FFFFFC000
1FFFFF8000
07FFFE0000
01FFFC0000
003FE00000
ENDCHAR
STARTCHAR colon
ENCODING 58
SWIDTH 320 0
DWIDTH 22 0
BBX 14 37 4 -1
BITMAP
07C0
1FF0
3FF8
7FF8
7FFC
FFFC
FFFC
FFFC
FFFC
FFFC
7FFC
7FF8
3FF8
1FF0
0FC0
0000
0000
0000
0000
0000
0000
0000
07C0
1FF0
3FF8
7FF8
7FFC
FFFC
FFFC
FFFC
FFFC
FFFC
7FFC
7FF8
3FF8
1FF0
0FC0
ENDCHAR
STARTCHAR semicolon
ENCODING 59
SWIDTH 320 0
DWIDTH 22 0
BBX 16 50 3 -14
BITMAP
03E0
0FF8
1FFC
3FFC
3FFE
7FFE
7FFE
7FFE
7FFE
7FFE
3FFE
3FFC
1FFC
0FF8
07E0
0000
0000
0000
0000
0000
0000
0000
03E0
0FF8
1FFC
3FFE
7FFE
7FFF
7FFF
7FFF
7FFF
3FFF
3FFF
0FFF
07FF
007F
007F
00FF
00FF
01FE
03FE
07FC
1FFC
FFF8
7FF0
7FE0
7FC0
3F00
3C00
3000
ENDCHAR
STARTCHAR less
ENCODING 60
SWIDTH 540 0
DWIDTH 38 0
BBX 33 33 2 7
BITMAP
0000000080
0000000780
0000001F80
000000FF80
000007FF80
00001FFF80
0000FFFF80
0003FFFF80
001FFFFF80
00FFFFFF80
03FFFFFE00
1FFFFFF000
FFFFFF0000
FFFFF80000
FFFFC00000
FFFE000000
FFF8000000
FFFE000000
FFFFC00000
FFFFF80000
FFFFFF0000
1FFFFFF000
03FFFFFE00
00FFFFFF80
001FFFFF80
0003FFFF80
0000FFFF80
00001FFF80
000003FF80
000000FF80
0000001F80
0000000780
0000000080
ENDCHAR
STARTCHAR equal
ENCODING 61
SWIDTH 540 0
DWIDTH 38 0
BBX 33 25 2 11
BITMAP
FFFFFFFF80
FFFFFFFF80
FFFFFFFF80
FFFFFFFF80
FFFFFFFF80
FFFFFFFF80
FFFFFFFF80
FFFFFFFF80
FFFFFFFF80
0000000000
0000000000
0000000000
0000000000
0000000000
0000000000
0000000000
FFFFFFFF80
FFFFFFFF80
FFFFFFFF80
FFFFFFFF80
FFFFFFFF80
FFFFFFFF80
FFFFFFFF80
FFFFFFFF80
FFFFFFFF80
ENDCHAR
STARTCHAR greater
ENCODING 62
SWIDTH 540 0
DWIDTH 38 0
BBX 33 33 2 7
BITMAP
C000000000
F000000000
FE00000000
FFC0000000
FFF0000000
FFFE000000
FFFFC00000
FFFFF00000
FFFFFE0000
FFFFFFC000
1FFFFFF000
03FFFFFE00
007FFFFF80
0007FFFF80
0000FFFF80
00001FFF80
000007FF80
00001FFF80
0000FFFF80
0007FFFF80
003FFFFF80
03FFFFFE00
1FFFFFF000
FFFFFFC000
FFFFFE0000
FFFFF00000
FFFFC00000
FFFE000000
FFF0000000
FFC0000000
FE00000000
F000000000
C000000000
ENDCHAR
STARTCHAR question
ENCODING 63
SWIDTH 478 0
DWIDTH 33 0
BBX 28 48 3 -1
BITMAP
007FC000
01FFF800
07FFFE00
1FFFFF00
3FFFFF80
7FFFFFC0
FFFFFFE0
7FFFFFE0
1FFFFFE0
0FC3FFE0
0700FFF0
0200FFF0
0000FFF0
0000FFF0
0000FFE0
0001FFE0
0003FFC0
0007FFC0
000FFF80
001FFF00
001FFE00
003FFC00
007FF800
007FF800
00FFF000
00FFE000
00FFE000
01FFC000
01FFC000
00FFC000
00000000
00000000
00000000
003F0000
00FF8000
01FFC000
01FFE000
03FFE000
03FFF000
03FFF000
03FFF000
03FFF000
03FFF000
03FFE000
01FFE000
01FFC000
00FF8000
003E0000
ENDCHAR
STARTCHAR at
ENCODING 64
SWIDTH 924 0
DWIDTH 65 0
BBX 58 59 3 -12
BITMAP
0000001FFE000000
000001FFFFC00000
00000FFFFFF80000
00003FFFFFFE0000
0000FFFFFFFF0000
0003FFFFFFFFC000
0007FFFFFFFFE000
000FFFE007FFF000
003FFF0000FFF800
007FFC00001FF800
00FFF000000FFC00
00FFE0000007FE00
01FF80000003FE00
03FF00000001FF00
07FE00000000FF00
07FC003F0000FF80
0FF800FF8FE07F80
0FF803FFDFE07F80
1FF007FFFFE03FC0
1FF00FFFFFE03FC0
3FE01FFFFFC03FC0
3FE01FFFFFC01FC0
3FC03FFFFFC01FC0
7FC07FF0FFC01FC0
7F807FE07FC01FC0
7F807FC07F801FC0
7F80FFC0FF801FC0
7F80FF80FF801FC0
7F80FF80FF801FC0
FF01FF80FF801FC0
FF01FF00FF003FC0
FF01FF00FF003FC0
FF01FF01FF003F80
FF01FF01FF007F80
FF01FF01FF007F80
FF81FF83FF00FF00
7F80FFC7FF01FE00
7F80FFFFFF87FE00
7F80FFFFFFFFFC00
7F807FFFFFFFF800
7FC07FFF3FFFF000
3FC03FFE3FFFE000
3FE01FFC1FFF8000
3FE007F007FF0000
1FF0000000F00000
1FF8000000000000
0FFC000000000000
0FFE000000000000
07FF000000000000
03FFC00002000000
01FFF00006000000
01FFFF007F000000
007FFFFFFF000000
003FFFFFFF800000
001FFFFFFF800000
0007FFFFFF800000
0001FFFFFF400000
00003FFFFC000000
000003FFC0000000
ENDCHAR
STARTCHAR A
ENCODING 65
SWIDTH 584 0
DWIDTH 41 0
BBX 43 46 -1 0
BITMAP
0003FFF80000
0003FFF80000
0007FFF80000
0007FFFC0000
0007FFFC0000
000FFFFC0000
000FFFFE0000
000FFFFE0000
000FFFFE0000
001FFFFF0000
001FFBFF0000
001FF3FF0000
003FF3FF0000
003FF3FF8000
003FF1FF8000
007FF1FF8000
007FE1FFC000
007FE1FFC000
007FE0FFC000
00FFE0FFE000
00FFC0FFE000
00FFC0FFE000
01FFC07FF000
01FFC07FF000
01FF807FF000
03FF807FF000
03FFFFFFF800
03FFFFFFF800
03FFFFFFF800
07FFFFFFFC00
07FFFFFFFC00
07FFFFFFFC00
0FFFFFFFFE00
0FFFFFFFFE00
0FFFFFFFFE00
1FFFFFFFFE00
1FFE000FFF00
1FFE000FFF00
1FFC000FFF00
3FFC000FFF80
3FFC0007FF80
3FFC0007FF80
7FF80007FFC0
7FF80007FFC0
7FF80003FFC0
FFF80003FFE0
ENDCHAR
STARTCHAR B
ENCODING 66
SWIDTH 612 0
DWIDTH 43 0
BBX 36 46 5 0
BITMAP
FFFFFE0000
FFFFFFE000
FFFFFFF800
FFFFFFFC00
FFFFFFFE00
FFFFFFFF00
FFFFFFFF80
FFFFFFFF80
FFFFFFFF80
FFFFFFFF80
FFF00FFFC0
FFF007FFC0
FFF003FFC0
FFF003FF80
FFF003FF80
FFF007FF80
FFF007FF80
FFF01FFF00
FFFFFFFF00
FFFFFFFE00
FFFFFFFC00
FFFFFFF000
FFFFFFFC00
FFFFFFFE00
FFFFFFFF80
FFFFFFFFC0
FFFFFFFFC0
FFF007FFE0
FFF001FFE0
FFF000FFE0
FFF000FFF0
FFF000FFF0
FFF000FFF0
FFF001FFF0
FFF001FFF0
FFF007FFE0
FFFFFFFFE0
FFFFFFFFE0
FFFFFFFFC0
FFFFFFFFC0
FFFFFFFF80
FFFFFFFF00
FFFFFFFE00
FFFFFFF800
FFFFFFE000
FFFFFE0000
ENDCHAR
STARTCHAR C
ENCODING 67
SWIDTH 586 0
DWIDTH 41 0
BBX 37 47 3 -1
BITMAP
00007FE000
0003FFFC00
000FFFFF00
003FFFFF80
007FFFFFE0
00FFFFFFF0
01FFFFFFF0
03FFFFFFE0
07FFFFFFC0
0FFFFFFF80
1FFFF07F00
1FFFC01E00
3FFF000600
3FFE000000
3FFE000000
7FFC000000
7FFC000000
7FF8000000
7FF8000000
FFF8000000
FFF8000000
FFF0000000
FFF0000000
FFF0000000
FFF0000000
FFF0000000
FFF8000000
FFF8000000
FFF8000000
7FF8000000
7FF8000000
7FFC000000
7FFC000000
3FFE000200
3FFF000700
3FFF800F80
1FFFE07F80
0FFFFFFFC0
0FFFFFFFE0
07FFFFFFF0
03FFFFFFF8
01FFFFFFF0
00FFFFFFE0
007FFFFF80
001FFFFF00
0007FFFC00
00007FE000
ENDCHAR
STARTCHAR D
ENCODING 68
SWIDTH 642 0
DWIDTH 45 0
BBX 37 46 5 0
BITMAP
FFFFF00000
FFFFFF0000
FFFFFFC000
FFFFFFF000
FFFFFFF800
FFFFFFFE00
FFFFFFFF00
FFFFFFFF00
FFFFFFFF80
FFFFFFFFC0
FFF07FFFC0
FFF00FFFE0
FFF007FFE0
FFF003FFF0
FFF001FFF0
FFF001FFF0
FFF000FFF0
FFF000FFF0
FFF000FFF8
FFF000FFF8
FFF000FFF8
FFF0007FF8
FFF0007FF8
FFF0007FF8
FFF000FFF8
FFF000FFF8
FFF000FFF8
FFF000FFF8
FFF000FFF0
FFF000FFF0
FFF001FFF0
FFF001FFF0
FFF003FFE0
FFF007FFE0
FFF00FFFE0
FFF07FFFC0
FFFFFFFFC0
FFFFFFFF80
FFFFFFFF00
FFFFFFFE00
FFFFFFFC00
FFFFFFF800
FFFFFFF000
FFFFFFC000
FFFFFF0000
FFFFF00000
ENDCHAR
STARTCHAR E
ENCODING 69
SWIDTH 556 0
DWIDTH 39 0
BBX 30 46 5 0
BITMAP
FFFFFFF8
FFFFFFF8
FFFFFFF8
FFFFFFF8
FFFFFFF8
FFFFFFF8
FFFFFFF8
FFFFFFF8
FFFFFFF8
FFFFFFF8
FFF00000
FFF00000
FFF00000
FFF00000
FFF00000
FFF00000
FFF00000
FFF00000
FFFFFFE0
FFFFFFE0
FFFFFFE0
FFFFFFE0
FFFFFFE0
FFFFFFE0
FFFFFFE0
FFFFFFE0
FFFFFFE0
FFFFFFE0
FFF00000
FFF00000
FFF00000
FFF00000
FFF00000
FFF00000
FFF00000
FFF00000
FFFFFFFC
FFFFFFFC
FFFFFFFC
FFFFFFFC
FFFFFFFC
FFFFFFFC
FFFFFFFC
FFFFFFFC
FFFFFFFC
FFFFFFFC
ENDCHAR
STARTCHAR F
ENCODING 70
SWIDTH 536 0
DWIDTH 38 0
BBX 30 46 5 0
BITMAP
FFFFFFFC
FFFFFFFC
FFFFFFFC
FFFFFFFC
FFFFFFFC
FFFFFFFC
FFFFFFFC
FFFFFFFC
FFFFFFFC
FFFFFFFC
FFF00000
FFF00000
FFF00000
FFF00000
FFF00000
FFF00000
FFF00000
FFF00000
FFF00000
FFFFFFE0
FFFFFFE0
FFFFFFE0
FFFFFFE0
FFFFFFE0
FFFFFFE0
FFFFFFE0
FFFFFFE0
FFFFFFE0
FFFFFFE0
FFF00000
FFF00000
FFF00000
FFF00000
FFF00000
FFF00000
FFF00000
FFF00000
FFF00000
FFF00000
FFF00000
FFF00000
FFF00000
FFF00000
FFF00000
FFF00000
FFF00000
ENDCHAR
STARTCHAR G
ENCODING 71
SWIDTH 646 0
DWIDTH 45 0
BBX 38 47 3 -1
BITMAP
00003FF000
0003FFFE00
000FFFFF80
003FFFFFE0
007FFFFFF0
00FFFFFFF8
01FFFFFFFC
03FFFFFFF0
07FFFFFFE0
0FFFFFFFE0
1FFFF01FC0
1FFFC00780
3FFF800300
3FFF000000
3FFE000000
7FFC000000
7FFC000000
7FF8000000
7FF8000000
FFF8000000
FFF807FFFC
FFF007FFFC
FFF007FFFC
FFF007FFFC
FFF007FFFC
FFF007FFFC
FFF807FFFC
FFF807FFFC
FFF807FFFC
7FF807FFFC
7FFC000FFC
7FFC000FFC
7FFE000FFC
3FFE000FFC
3FFF000FFC
1FFFC00FFC
1FFFF01FFC
0FFFFFFFFC
0FFFFFFFFC
07FFFFFFFC
03FFFFFFFC
01FFFFFFFC
00FFFFFFF8
003FFFFFF0
001FFFFFC0
0003FFFF00
00003FF000
ENDCHAR
STARTCHAR H
ENCODING 72
SWIDTH 682 0
DWIDTH 48 0
BBX 38 46 5 0
BITMAP
FFF0003FFC
FFF0003FFC
FFF0003FFC
FFF0003FFC
FFF0003FFC
FFF0003FFC
FFF0003FFC
FFF0003FFC
FFF0003FFC
FFF0003FFC
FFF0003FFC
FFF0003FFC
FFF0003FFC
FFF0003FFC
FFF0003FFC
FFF0003FFC
FFF0003FFC
FFF0003FFC
FFFFFFFFFC
FFFFFFFFFC
FFFFFFFFFC
FFFFFFFFFC
FFFFFFFFFC
FFFFFFFFFC
FFFFFFFFFC
FFFFFFFFFC
FFFFFFFFFC
FFFFFFFFFC
FFF0003FFC
FFF0003FFC
FFF0003FFC
FFF0003FFC
FFF0003FFC
FFF0003FFC
FFF0003FFC
FFF0003FFC
FFF0003FFC
FFF0003FFC
FFF0003FFC
FFF0003FFC
FFF0003FFC
FFF0003FFC
FFF0003FFC
FFF0003FFC
FFF0003FFC
FFF0003FFC
ENDCHAR
STARTCHAR I
ENCODING 73
SWIDTH 316 0
DWIDTH 22 0
BBX 12 46 5 0
BITMAP
FFF0
FFF0
FFF0
FFF0
FFF0
FFF0
FFF0
FFF0
FFF0
FFF0
FFF0
FFF0
FFF0
FFF0
FFF0
FFF0
FFF0
FFF0
FFF0
FFF0
FFF0
FFF0
FFF0
FFF0
FFF0
FFF0
FFF0
FFF0
FFF0
FFF0
FFF0
FFF0
FFF0
FFF0
FFF0
FFF0
FFF0
FFF0
FFF0
FFF0
FFF0
FFF0
FFF0
FFF0
FFF0
FFF0
ENDCHAR
STARTCHAR J
ENCODING 74
SWIDTH 520 0
DWIDTH 36 0
BBX 31 47 1 -1
BITMAP
00001FFE
00001FFE
00001FFE
00001FFE
00001FFE
00001FFE
00001FFE
00001FFE
00001FFE
00001FFE
00001FFE
00001FFE
00001FFE
00001FFE
00001FFE
00001FFE
00001FFE
00001FFE
00001FFE
00001FFE
00001FFE
00001FFE
00001FFE
00001FFE
00001FFE
00001FFE
00001FFE
00001FFE
00001FFE
00001FFE
00001FFE
00003FFE
00003FFE
01003FFC
07803FFC
0FC07FFC
1FF0FFFC
7FFFFFF8
FFFFFFF8
FFFFFFF8
7FFFFFF0
3FFFFFE0
1FFFFFC0
0FFFFF80
07FFFF00
01FFFC00
003FF000
ENDCHAR
STARTCHAR K
ENCODING 75
SWIDTH 628 0
DWIDTH 44 0
BBX 40 46 5 0
BITMAP
FFF001FFF8
FFF001FFF0
FFF003FFE0
FFF007FFC0
FFF007FFC0
FFF00FFF80
FFF01FFF00
FFF01FFF00
FFF03FFE00
FFF07FFC00
FFF07FF800
FFF0FFF800
FFF1FFF000
FFF1FFE000
FFF3FFC000
FFF7FFC000
FFF7FF8000
FFFFFF0000
FFFFFF0000
FFFFFF0000
FFFFFF8000
FFFFFF8000
FFFFFFC000
FFFFFFC000
FFFFFFE000
FFFFFFE000
FFFFFFF000
FFFFFFF800
FFFF7FF800
FFFF7FFC00
FFFE3FFC00
FFFC3FFE00
FFFC1FFF00
FFF81FFF00
FFF00FFF80
FFF007FF80
FFF007FFC0
FFF003FFE0
FFF003FFE0
FFF001FFF0
FFF001FFF0
FFF000FFF8
FFF000FFFC
FFF0007FFC
FFF0003FFE
FFF0003FFF
ENDCHAR
STARTCHAR L
ENCODING 76
SWIDTH 530 0
DWIDTH 37 0
BBX 29 46 5 0
BITMAP
FFF00000
FFF00000
FFF00000
FFF00000
FFF00000
FFF00000
FFF00000
FFF00000
FFF00000
FFF00000
FFF00000
FFF00000
FFF00000
FFF00000
FFF00000
FFF00000
FFF00000
FFF00000
FFF00000
FFF00000
FFF00000
FFF00000
FFF00000
FFF00000
FFF00000
FFF00000
FFF00000
FFF00000
FFF00000
FFF00000
FFF00000
FFF00000
FFF00000
FFF00000
FFF00000
FFF00000
FFFFFFF8
FFFFFFF8
FFFFFFF8
FFFFFFF8
FFFFFFF8
FFFFFFF8
FFFFFFF8
FFFFFFF8
FFFFFFF8
FFFFFFF8
ENDCHAR
STARTCHAR M
ENCODING 77
SWIDTH 776 0
DWIDTH 54 0
BBX 44 46 5 0
BITMAP
FFF80001FFF0
FFF80001FFF0
FFFC0001FFF0
FFFC0003FFF0
FFFE0003FFF0
FFFE0007FFF0
FFFE0007FFF0
FFFF0007FFF0
FFFF000FFFF0
FFFF000FFFF0
FFFF800FFFF0
FFFF801FFFF0
FFFF801FFFF0
FFFFC01FFFF0
FFFFC03FFFF0
FFFFE03FFFF0
FFBFE03FFFF0
FFBFE07FDFF0
FFFFF07FDFF0
FFDFF07FFFF0
FFDFF0FFBFF0
FFDFF8FFBFF0
FFCFF8FF3FF0
FFCFF9FF3FF0
FFCFF9FF3FF0
FFC7FDFE3FF0
FFC7FDFE3FF0
FFE7FFFE3FF0
FFE3FFFC3FF0
FFE3FFFC7FF0
FFE3FFFC7FF0
FFE1FFF87FF0
FFE1FFF87FF0
FFE0FFF87FF0
FFE0FFF07FF0
FFE0FFF07FF0
FFE07FE07FF0
FFE07FE07FF0
FFE07FE07FF0
FFE03FC07FF0
FFE03FC07FF0
FFE01FC07FF0
FFE000007FF0
FFE000007FF0
FFE000007FF0
FFE000007FF0
ENDCHAR
STARTCHAR N
ENCODING 78
SWIDTH 672 0
DWIDTH 47 0
BBX 37 46 5 0
BITMAP
FFF8003FF8
FFF8003FF8
FFFC003FF8
FFFC003FF8
FFFE003FF8
FFFE003FF8
FFFF003FF8
FFFF003FF8
FFFF803FF8
FFFF803FF8
FFFFC03FF8
FFFFC03FF8
FFFFE03FF8
FFFFE03FF8
FFFFE03FF8
FFFFF03FF8
FFDFF03FF8
FFDFF83FF8
FFCFF83FF8
FFCFFC3FF8
FFE7FC3FF8
FFE7FE3FF8
FFE7FE3FF8
FFE3FF3FF8
FFE3FF3FF8
FFE1FFBFF8
FFE1FF9FF8
FFE0FF9FF8
FFE0FFDFF8
FFE07FDFF8
FFE07FFFF8
FFE03FFFF8
FFF03FFFF8
FFF01FFFF8
FFF01FFFF8
FFF00FFFF8
FFF00FFFF8
FFF007FFF8
FFF007FFF8
FFF007FFF8
FFF003FFF8
FFF003FFF8
FFF001FFF8
FFF001FFF8
FFF000FFF8
FFF000FFF8
ENDCHAR
STARTCHAR O
ENCODING 79
SWIDTH 692 0
DWIDTH 48 0
BBX 42 47 3 -1
BITMAP
0000FFC00000
0007FFFC0000
003FFFFF0000
007FFFFFC000
00FFFFFFE000
03FFFFFFF000
07FFFFFFF800
07FFFFFFFC00
0FFFFFFFFC00
1FFFFFFFFE00
1FFFC0FFFF00
3FFF803FFF00
3FFE001FFF00
3FFE000FFF80
7FFC000FFF80
7FFC0007FF80
7FF80007FFC0
7FF80007FFC0
FFF80003FFC0
FFF80003FFC0
FFF80003FFC0
FFF00003FFC0
FFF00003FFC0
FFF00003FFC0
FFF00003FFC0
FFF00003FFC0
FFF80003FFC0
FFF80003FFC0
FFF80003FFC0
7FF80007FFC0
7FF80007FFC0
7FFC0007FF80
7FFC000FFF80
3FFE000FFF80
3FFF001FFF00
3FFF803FFF00
1FFFC0FFFE00
0FFFFFFFFE00
0FFFFFFFFC00
07FFFFFFFC00
03FFFFFFF800
01FFFFFFF000
00FFFFFFE000
007FFFFF8000
001FFFFF0000
0007FFFC0000
0000FFC00000
ENDCHAR
STARTCHAR P
ENCODING 80
SWIDTH 608 0
DWIDTH 43 0
BBX 35 46 5 0
BITMAP
FFFFFE0000
FFFFFFC000
FFFFFFF000
FFFFFFFC00
FFFFFFFE00
FFFFFFFF00
FFFFFFFF80
FFFFFFFF80
FFFFFFFFC0
FFFFFFFFC0
FFF00FFFE0
FFF003FFE0
FFF001FFE0
FFF001FFE0
FFF001FFE0
FFF001FFE0
FFF001FFE0
FFF001FFE0
FFF001FFE0
FFF003FFE0
FFF00FFFC0
FFFFFFFFC0
FFFFFFFFC0
FFFFFFFF80
FFFFFFFF00
FFFFFFFE00
FFFFFFFC00
FFFFFFF800
FFFFFFF000
FFFFFFC000
FFFFFC0000
FFF0000000
FFF0000000
FFF0000000
FFF0000000
FFF0000000
FFF0000000
FFF0000000
FFF0000000
FFF0000000
FFF0000000
FFF0000000
FFF0000000
FFF0000000
FFF0000000
FFF0000000
ENDCHAR
STARTCHAR Q
ENCODING 81
SWIDTH 692 0
DWIDTH 48 0
BBX 45 59 3 -13
BITMAP
0000FFC00000
0007FFFC0000
003FFFFF0000
007FFFFFC000
01FFFFFFE000
03FFFFFFF000
07FFFFFFF800
07FFFFFFFC00
0FFFFFFFFC00
1FFFFFFFFE00
1FFFC0FFFF00
3FFF003FFF00
3FFE001FFF80
7FFE000FFF80
7FFC000FFF80
7FFC0007FF80
7FF80007FFC0
FFF80003FFC0
FFF80003FFC0
FFF80003FFC0
FFF00003FFC0
FFF00003FFC0
FFF00003FFC0
FFF00003FFC0
FFF00003FFC0
FFF80003FFC0
FFF80003FFC0
FFF80003FFC0
FFF80007FFC0
7FF80007FFC0
7FFC0007FFC0
7FFC000FFF80
7FFE000FFF80
3FFF001FFF80
3FFF803FFF00
1FFFC0FFFF00
1FFFFFFFFE00
0FFFFFFFFE00
0FFFFFFFFC00
07FFFFFFF800
03FFFFFFF000
01FFFFFFE000
00FFFFFFC000
003FFFFF8000
001FFFFE0000
0003FFF00000
0000FFF80000
00007FFE0000
00007FFFC020
00003FFFFFF0
00003FFFFFF0
00001FFFFFF0
00000FFFFFF0
000007FFFFF0
000003FFFFF8
000000FFFFF8
0000003FFFF8
0000000FFFF8
00000001FFC0
ENDCHAR
STARTCHAR R
ENCODING 82
SWIDTH 630 0
DWIDTH 44 0
BBX 38 46 5 0
BITMAP
FFFFFE0000
FFFFFFE000
FFFFFFF800
FFFFFFFC00
FFFFFFFF00
FFFFFFFF80
FFFFFFFF80
FFFFFFFFC0
FFFFFFFFC0
FFFFFFFFE0
FFF00FFFE0
FFF003FFE0
FFF001FFE0
FFF000FFE0
FFF000FFE0
FFF000FFE0
FFF000FFE0
FFF001FFE0
FFF001FFE0
FFF003FFE0
FFF00FFFE0
FFFFFFFFC0
FFFFFFFFC0
FFFFFFFF80
FFFFFFFF80
FFFFFFFF00
FFFFFFFE00
FFFFFFFC00
FFFFFFF000
FFFFFFF800
FFFFFFF800
FFF07FFC00
FFF07FFC00
FFF03FFE00
FFF01FFF00
FFF01FFF00
FFF00FFF80
FFF00FFF80
FFF007FFC0
FFF007FFC0
FFF003FFE0
FFF003FFE0
FFF001FFF0
FFF001FFF8
FFF000FFF8
FFF000FFFC
ENDCHAR
STARTCHAR S
ENCODING 83
SWIDTH 564 0
DWIDTH 39 0
BBX 35 47 2 -1
BITMAP
0003FF0000
001FFFE000
007FFFF800
01FFFFFE00
03FFFFFF00
07FFFFFFC0
0FFFFFFF80
0FFFFFFF80
1FFFFFFF00
1FFFFFFE00
3FFF03FC00
3FFE007800
3FFC001800
3FFC000000
3FFC000000
3FFE000000
3FFF800000
3FFFF00000
1FFFFC0000
1FFFFF8000
0FFFFFE000
0FFFFFF800
07FFFFFE00
03FFFFFF00
01FFFFFF80
007FFFFF80
001FFFFFC0
0007FFFFC0
0001FFFFE0
00003FFFE0
00000FFFE0
000003FFE0
000001FFE0
030001FFE0
07C001FFE0
07F003FFE0
0FFC07FFE0
1FFFFFFFC0
3FFFFFFFC0
7FFFFFFF80
FFFFFFFF80
7FFFFFFF00
3FFFFFFE00
0FFFFFF800
03FFFFF000
007FFFC000
000FFC0000
ENDCHAR
STARTCHAR T
ENCODING 84
SWIDTH 564 0
DWIDTH 39 0
BBX 36 46 2 0
BITMAP
FFFFFFFFF0
FFFFFFFFF0
FFFFFFFFF0
FFFFFFFFF0
FFFFFFFFF0
FFFFFFFFF0
FFFFFFFFF0
FFFFFFFFF0
FFFFFFFFF0
FFFFFFFFF0
000FFF0000
000FFF0000
000FFF0000
000FFF0000
000FFF0000
000FFF0000
000FFF0000
000FFF0000
000FFF0000
000FFF0000
000FFF0000
000FFF0000
000FFF0000
000FFF0000
000FFF0000
000FFF0000
000FFF0000
000FFF0000
000FFF0000
000FFF0000
000FFF0000
000FFF0000
000FFF0000
000FFF0000
000FFF0000
000FFF0000
000FFF0000
000FFF0000
000FFF0000
000FFF0000
000FFF0000
000FFF0000
000FFF0000
000FFF0000
000FFF0000
000FFF0000
ENDCHAR
STARTCHAR U
ENCODING 85
SWIDTH 672 0
DWIDTH 47 0
BBX 37 47 5 -1
BITMAP
FFF0003FF8
FFF0003FF8
FFF0003FF8
FFF0003FF8
FFF0003FF8
FFF0003FF8
FFF0003FF8
FFF0003FF8
FFF0003FF8
FFF0003FF8
FFF0003FF8
FFF0003FF8
FFF0003FF8
FFF0003FF8
FFF0003FF8
FFF0003FF8
FFF0003FF8
FFF0003FF8
FFF0003FF8
FFF0003FF8
FFF0003FF8
FFF0003FF8
FFF0003FF8
FFF0003FF8
FFF0003FF8
FFF0003FF8
FFF0003FF8
FFF0003FF8
FFF0003FF8
FFF0007FF8
FFF0007FF8
FFF0007FF8
7FF8007FF8
7FF800FFF0
7FF800FFF0
7FFC01FFF0
3FFF07FFE0
3FFFFFFFE0
1FFFFFFFE0
1FFFFFFFC0
0FFFFFFF80
07FFFFFF80
07FFFFFF00
01FFFFFE00
00FFFFF800
003FFFE000
0007FF0000
ENDCHAR
STARTCHAR V
ENCODING 86
SWIDTH 572 0
DWIDTH 40 0
BBX 42 46 -1 0
BITMAP
FFF80007FFC0
7FF80007FF80
7FFC0007FF80
7FFC0007FF80
3FFC000FFF00
3FFC000FFF00
3FFE000FFF00
3FFE000FFF00
1FFE001FFE00
1FFE001FFE00
1FFF001FFE00
0FFF001FFC00
0FFF001FFC00
0FFF003FFC00
07FF003FFC00
07FF803FF800
07FF803FF800
07FF807FF800
03FF807FF000
03FFC07FF000
03FFC07FF000
01FFC0FFE000
01FFC0FFE000
01FFE0FFE000
01FFE0FFE000
00FFE0FFC000
00FFE1FFC000
00FFF1FFC000
007FF1FF8000
007FF1FF8000
007FF3FF8000
003FF3FF8000
003FFBFF0000
003FFBFF0000
003FFFFF0000
001FFFFE0000
001FFFFE0000
001FFFFE0000
000FFFFE0000
000FFFFC0000
000FFFFC0000
000FFFFC0000
0007FFF80000
0007FFF80000
0007FFF80000
0003FFF00000
ENDCHAR
STARTCHAR W
ENCODING 87
SWIDTH 824 0
DWIDTH 58 0
BBX 56 46 1 0
BITMAP
FFF001FF800FFF
FFF001FFC00FFF
FFF001FFC00FFF
FFF003FFC00FFE
FFF803FFC00FFE
7FF803FFC00FFE
7FF803FFE00FFE
7FF803FFE00FFE
7FF807FFE01FFE
7FF807FFE01FFC
3FF807FFF01FFC
3FF807FFF01FFC
3FFC0FFFF01FFC
3FFC0FFFF01FFC
3FFC0FFFF01FFC
3FFC0FFFF81FF8
1FFC0FFFF83FF8
1FFC1FFFF83FF8
1FFC1FEFF83FF8
1FFC1FEFFC3FF8
1FFE1FEFFC3FF8
1FFE1FE7FC3FF0
0FFE3FE7FC3FF0
0FFE3FE7FC3FF0
0FFE3FE7FC7FF0
0FFE3FC7FE7FF0
0FFE3FC7FE7FF0
0FFE3FC3FE7FE0
07FE7FC3FE7FE0
07FF7FC3FE7FE0
07FF7FC3FE7FE0
07FF7F83FF7FE0
07FF7F81FF7FE0
03FF7F81FF7FC0
03FFFF81FFFFC0
03FFFF81FFFFC0
03FFFF01FFFFC0
03FFFF00FFFFC0
03FFFF00FFFFC0
01FFFF00FFFFC0
01FFFF00FFFF80
01FFFE00FFFF80
01FFFE00FFFF80
01FFFE007FFF80
01FFFE007FFF80
00FFFE007FFF80
ENDCHAR
STARTCHAR X
ENCODING 88
SWIDTH 588 0
DWIDTH 41 0
BBX 39 46 1 0
BITMAP
FFFC003FFE
7FFC007FFC
3FFE007FFC
3FFE007FF8
1FFF00FFF8
1FFF00FFF0
0FFF80FFE0
0FFF81FFE0
07FF81FFC0
07FFC3FFC0
03FFC3FF80
03FFE3FF80
01FFE7FF00
01FFE7FF00
00FFF7FE00
00FFFFFE00
007FFFFC00
007FFFFC00
003FFFF800
001FFFF800
001FFFF000
000FFFF000
000FFFE000
001FFFE000
001FFFF000
003FFFF800
003FFFF800
007FFFFC00
007FFFFC00
00FFFFFE00
00FFFFFE00
01FFCFFF00
01FFCFFF00
03FFCFFF80
03FF87FF80
07FF87FFC0
07FF03FFC0
0FFF03FFE0
0FFF01FFE0
1FFE01FFF0
1FFE00FFF8
3FFC00FFF8
3FFC00FFFC
7FFC007FFC
FFF8007FFE
FFF8003FFE
ENDCHAR
STARTCHAR Y
ENCODING 89
SWIDTH 544 0
DWIDTH 38 0
BBX 40 46 -1 0
BITMAP
FFF8001FFF
7FFC001FFE
7FFC003FFE
3FFC003FFC
3FFE003FFC
1FFE007FF8
1FFE007FF8
0FFF007FF0
0FFF00FFF0
07FF80FFE0
07FF81FFE0
03FF81FFE0
03FF81FFC0
03FFC3FFC0
01FFC3FF80
01FFC3FF80
00FFE7FF00
00FFE7FF00
007FF7FE00
007FFFFE00
003FFFFC00
003FFFFC00
001FFFFC00
001FFFF800
001FFFF800
000FFFF000
000FFFF000
0007FFE000
0007FFE000
0003FFC000
0003FFC000
0003FFC000
0003FFC000
0003FFC000
0003FFC000
0003FFC000
0003FFC000
0003FFC000
0003FFC000
0003FFC000
0003FFC000
0003FFC000
0003FFC000
0003FFC000
0003FFC000
0003FFC000
ENDCHAR
STARTCHAR Z
ENCODING 90
SWIDTH 542 0
DWIDTH 38 0
BBX 34 46 2 0
BITMAP
3FFFFFFFC0
3FFFFFFFC0
3FFFFFFFC0
3FFFFFFFC0
3FFFFFFFC0
3FFFFFFFC0
3FFFFFFFC0
3FFFFFFF80
3FFFFFFF80
3FFFFFFF00
00001FFE00
00003FFE00
00007FFC00
00007FFC00
0000FFF800
0001FFF000
0001FFF000
0003FFE000
0007FFC000
0007FFC000
000FFF8000
001FFF0000
001FFF0000
003FFE0000
003FFC0000
007FFC0000
00FFF80000
00FFF80000
01FFF00000
03FFE00000
03FFE00000
07FFC00000
0FFF800000
0FFF800000
1FFF000000
3FFE000000
3FFFFFFFC0
7FFFFFFFC0
7FFFFFFFC0
FFFFFFFFC0
FFFFFFFFC0
FFFFFFFFC0
FFFFFFFFC0
FFFFFFFFC0
FFFFFFFFC0
FFFFFFFFC0
ENDCHAR
STARTCHAR bracketleft
ENCODING 91
SWIDTH 360 0
DWIDTH 25 0
BBX 16 59 6 -10
BITMAP
FFFF
FFFF
FFFF
FFFF
FFFF
FFFF
FF80
FF80
FF80
FF80
FF80
FF80
FF80
FF80
FF80
FF80
FF80
FF80
FF80
FF80
FF80
FF80
FF80
FF80
FF80
FF80
FF80
FF80
FF80
FF80
FF80
FF80
FF80
FF80
FF80
FF80
FF80
FF80
FF80
FF80
FF80
FF80
FF80
FF80
FF80
FF80
FF80
FF80
FF80
FF80
FF80
FF80
FF80
FFFF
FFFF
FFFF
FFFF
FFFF
FFFF
ENDCHAR
STARTCHAR backslash
ENCODING 92
SWIDTH 334 0
DWIDTH 23 0
BBX 20 61 2 -11
BITMAP
FF0000
7F0000
7F8000
7F8000
7F8000
7F8000
3F8000
3FC000
3FC000
3FC000
1FC000
1FC000
1FE000
1FE000
1FE000
0FE000
0FE000
0FF000
0FF000
0FF000
07F000
07F000
07F800
07F800
07F800
03F800
03F800
03FC00
03FC00
03FC00
01FC00
01FC00
01FE00
01FE00
01FE00
00FE00
00FE00
00FF00
00FF00
00FF00
007F00
007F00
007F80
007F80
007F80
003F80
003F80
003FC0
003FC0
003FC0
001FC0
001FC0
001FE0
001FE0
001FE0
000FE0
000FE0
000FF0
000FF0
000FF0
0007F0
ENDCHAR
STARTCHAR bracketright
ENCODING 93
SWIDTH 360 0
DWIDTH 25 0
BBX 15 59 4 -10
BITMAP
FFFE
FFFE
FFFE
FFFE
FFFE
FFFE
03FE
03FE
03FE
03FE
03FE
03FE
03FE
03FE
03FE
03FE
03FE
03FE
03FE
03FE
03FE
03FE
03FE
03FE
03FE
03FE
03FE
03FE
03FE
03FE
03FE
03FE
03FE
03FE
03FE
03FE
03FE
03FE
03FE
03FE
03FE
03FE
03FE
03FE
03FE
03FE
03FE
03FE
03FE
03FE
03FE
03FE
03FE
FFFE
FFFE
FFFE
FFFE
FFFE
FFFE
ENDCHAR
STARTCHAR asciicircum
ENCODING 94
SWIDTH 540 0
DWIDTH 38 0
BBX 32 28 3 19
BITMAP
001FF800
001FF800
003FFC00
003FFC00
007FFC00
007FFE00
007FFE00
00FFFF00
00FFFF00
01FFFF00
01FFFF80
01FF7F80
03FE7FC0
03FE7FC0
07FE7FC0
07FC3FE0
07FC3FE0
0FFC3FE0
0FF81FF0
0FF81FF0
1FF81FF8
1FF00FF8
3FF00FF8
3FF00FFC
3FE007FC
7FE007FE
7FE007FE
FFC003FF
ENDCHAR
STARTCHAR underscore
ENCODING 95
SWIDTH 500 0
DWIDTH 35 0
BBX 33 7 1 -10
BITMAP
FFFFFFFF80
FFFFFFFF80
FFFFFFFF80
FFFFFFFF80
FFFFFFFF80
FFFFFFFF80
FFFFFFFF80
ENDCHAR
STARTCHAR grave
ENCODING 96
SWIDTH 560 0
DWIDTH 39 0
BBX 19 19 5 40
BITMAP
010000
038000
07C000
0FE000
1FF000
3FF800
7FFC00
FFFC00
7FFE00
3FFF00
1FFF80
0FFFC0
07FFE0
01FFE0
00FFC0
007F80
003F00
001E00
000400
ENDCHAR
STARTCHAR a
ENCODING 97
SWIDTH 536 0
DWIDTH 38 0
BBX 31 37 3 -1
BITMAP
001FF800
01FFFE00
0FFFFF80
3FFFFFC0
7FFFFFE0
7FFFFFF0
3FFFFFF8
1FFFFFF8
1FFFFFFC
0FE0FFFC
0F003FFC
04003FFC
00001FFC
00007FFE
001FFFFE
00FFFFFE
03FFFFFE
0FFFFFFE
1FFFFFFE
3FFFFFFE
7FFFDFFE
7FFC1FFE
FFF81FFE
FFF01FFE
FFE01FFE
FFE01FFE
FFE03FFE
FFF0FFFE
FFFFFFFE
FFFFFFFE
FFFFFFFE
7FFFFFFE
7FFFFFFE
3FFFEFFE
1FFFC7FE
07FF07FE
01FC0000
ENDCHAR
STARTCHAR b
ENCODING 98
SWIDTH 580 0
DWIDTH 41 0
BBX 34 50 4 -1
BITMAP
FFF0000000
FFF0000000
FFF0000000
FFF0000000
FFF0000000
FFF0000000
FFF0000000
FFF0000000
FFF0000000
FFF0000000
FFF0000000
FFF0000000
FFF0000000
FFF07F0000
FFF1FFC000
FFF7FFF000
FFFFFFF800
FFFFFFFC00
FFFFFFFE00
FFFFFFFE00
FFFFFFFF00
FFFFFFFF00
FFFE1FFF80
FFFC0FFF80
FFF807FF80
FFF007FFC0
FFF007FFC0
FFF003FFC0
FFF003FFC0
FFF003FFC0
FFF003FFC0
FFF003FFC0
FFF003FFC0
FFF003FFC0
FFF003FFC0
FFF007FFC0
FFF007FFC0
FFF007FF80
FFF00FFF80
FFF80FFF80
FFFC3FFF00
FFFFFFFF00
FFFFFFFE00
FFFFFFFE00
FFFFFFFC00
FFDFFFF800
FFCFFFF000
FFC7FFE000
FFC3FF8000
00007E0000
ENDCHAR
STARTCHAR c
ENCODING 99
SWIDTH 472 0
DWIDTH 33 0
BBX 30 37 2 -1
BITMAP
0003FE00
001FFFC0
007FFFF0
00FFFFF8
03FFFFF0
07FFFFF0
0FFFFFE0
0FFFFFC0
1FFFFF80
3FFF8380
3FFE0100
7FFE0000
7FFC0000
7FF80000
7FF80000
FFF80000
FFF80000
FFF80000
FFF80000
FFF80000
FFF80000
FFF80000
7FF80000
7FF80000
7FFC0000
7FFE0000
3FFE0080
3FFF83C0
1FFFFFE0
1FFFFFE0
0FFFFFF0
07FFFFF0
03FFFFF8
01FFFFFC
00FFFFF0
003FFFC0
0007FC00
ENDCHAR
STARTCHAR d
ENCODING 100
SWIDTH 580 0
DWIDTH 41 0
BBX 34 50 3 -1
BITMAP
000007FFC0
000007FFC0
000007FFC0
000007FFC0
000007FFC0
000007FFC0
000007FFC0
000007FFC0
000007FFC0
000007FFC0
000007FFC0
000003FFC0
000003FFC0
001F83FFC0
00FFE3FFC0
01FFFBFFC0
07FFFFFFC0
0FFFFFFFC0
1FFFFFFFC0
1FFFFFFFC0
3FFFFFFFC0
3FFFFFFFC0
7FFE1FFFC0
7FFC0FFFC0
FFF807FFC0
FFF807FFC0
FFF007FFC0
FFF007FFC0
FFF007FFC0
FFF007FFC0
FFF007FFC0
FFF007FFC0
FFF007FFC0
FFF007FFC0
FFF007FFC0
FFF007FFC0
FFF007FFC0
FFF807FFC0
FFF807FFC0
7FFC0FFFC0
7FFE1FFFC0
7FFFFFFFC0
3FFFFFFFC0
3FFFFFFFC0
1FFFFFFFC0
0FFFFFFFC0
07FFFDFFC0
03FFF9FFC0
01FFE0FFC0
003F800000
ENDCHAR
STARTCHAR e
ENCODING 101
SWIDTH 526 0
DWIDTH 37 0
BBX 32 37 2 -1
BITMAP
0007F800
003FFF00
00FFFFC0
01FFFFE0
03FFFFF0
07FFFFF8
0FFFFFFC
1FFFFFFC
1FFFFFFE
3FFE0FFE
3FF807FE
7FF803FF
7FF003FF
7FF003FF
7FFFFFFF
FFFFFFFF
FFFFFFFF
FFFFFFFF
FFFFFFFF
FFFFFFFF
FFFFFFFF
FFFFFFFF
7FF00000
7FF00000
7FF80000
7FF80000
3FFE0020
3FFF81F0
1FFFFFF8
1FFFFFF8
0FFFFFFC
07FFFFFC
03FFFFFE
01FFFFFC
00FFFFF0
003FFFC0
0003FE00
ENDCHAR
STARTCHAR f
ENCODING 102
SWIDTH 360 0
DWIDTH 25 0
BBX 25 50 2 0
BITMAP
0007FE00
001FFF80
007FFF80
00FFFF80
01FFFF80
03FFFF00
03FFFF00
07FFFF00
07FFFF00
07FFC200
07FF8000
0FFF0000
0FFF0000
0FFF0000
0FFF0000
FFFFFC00
FFFFFC00
FFFFFC00
FFFFFC00
FFFFFC00
FFFFFC00
FFFFFC00
FFFFFC00
FFFFFC00
0FFF0000
0FFF0000
0FFF0000
0FFF0000
0FFF0000
0FFF0000
0FFF0000
0FFF0000
0FFF0000
0FFF0000
0FFF0000
0FFF0000
0FFF0000
0FFF0000
0FFF0000
0FFF0000
0FFF0000
0FFF0000
0FFF0000
0FFF0000
0FFF0000
0FFF0000
0FFF0000
0FFF0000
0FFF0000
0FFF0000
ENDCHAR
STARTCHAR g
ENCODING 103
SWIDTH 546 0
DWIDTH 38 0
BBX 35 50 2 -14
BITMAP
001FF00000
00FFFFFFE0
03FFFFFFE0
07FFFFFFE0
0FFFFFFFE0
1FFFFFFFE0
1FFFFFFFE0
3FFFFFFFE0
3FFFFFFFE0
7FFC3FFFE0
7FF81FFC00
7FF01FFC00
7FF00FFC00
7FF00FFC00
7FF00FFC00
7FF01FFC00
7FF81FFC00
3FFC3FF800
3FFFFFF800
1FFFFFF800
0FFFFFF000
07FFFFE000
07FFFFC000
0FFFFF0000
1FFFF80000
1FE0000000
3FE0000000
3FF0000000
3FFFFFE000
3FFFFFFC00
3FFFFFFF00
3FFFFFFF80
1FFFFFFFC0
0FFFFFFFC0
07FFFFFFE0
1FFFFFFFE0
3FFFFFFFE0
7FC001FFE0
7FC001FFE0
FFC000FFE0
FFC001FFE0
FFE001FFC0
FFF80FFFC0
FFFFFFFF80
7FFFFFFF00
7FFFFFFE00
3FFFFFFC00
0FFFFFF000
07FFFF8000
007FF80000
ENDCHAR
STARTCHAR h
ENCODING 104
SWIDTH 582 0
DWIDTH 41 0
BBX 33 49 4 0
BITMAP
FFF0000000
FFF0000000
FFF0000000
FFF0000000
FFF0000000
FFF0000000
FFF0000000
FFF0000000
FFF0000000
FFF0000000
FFF0000000
FFF0000000
FFF0000000
FFF03FC000
FFF0FFF000
FFF3FFF800
FFF7FFFC00
FFFFFFFE00
FFFFFFFE00
FFFFFFFF00
FFFFFFFF00
FFFFFFFF00
FFFFFFFF80
FFFE1FFF80
FFFC0FFF80
FFF807FF80
FFF007FF80
FFF007FF80
FFF007FF80
FFF007FF80
FFF007FF80
FFF007FF80
FFF007FF80
FFF007FF80
FFF007FF80
FFF007FF80
FFF007FF80
FFF007FF80
FFF007FF80
FFF007FF80
FFF007FF80
FFF007FF80
FFF007FF80
FFF007FF80
FFF007FF80
FFF007FF80
FFF007FF80
FFF007FF80
FFF007FF80
ENDCHAR
STARTCHAR i
ENCODING 105
SWIDTH 288 0
DWIDTH 20 0
BBX 14 51 3 0
BITMAP
0FC0
3FF0
7FF8
7FF8
FFFC
FFFC
FFFC
7FFC
7FF8
7FF8
3FF0
0FC0
0000
0000
0000
0000
7FF8
7FF8
7FF8
7FF8
7FF8
7FF8
7FF8
7FF8
7FF8
7FF8
7FF8
7FF8
7FF8
7FF8
7FF8
7FF8
7FF8
7FF8
7FF8
7FF8
7FF8
7FF8
7FF8
7FF8
7FF8
7FF8
7FF8
7FF8
7FF8
7FF8
7FF8
7FF8
7FF8
7FF8
7FF8
ENDCHAR
STARTCHAR j
ENCODING 106
SWIDTH 290 0
DWIDTH 20 0
BBX 21 64 -4 -13
BITMAP
001F80
003FE0
007FF0
00FFF0
00FFF8
01FFF8
00FFF8
00FFF8
00FFF0
007FF0
003FE0
001F80
000000
000000
000000
000000
00FFF0
00FFF0
00FFF0
00FFF0
00FFF0
00FFF0
00FFF0
00FFF0
00FFF0
00FFF0
00FFF0
00FFF0
00FFF0
00FFF0
00FFF0
00FFF0
00FFF0
00FFF0
00FFF0
00FFF0
00FFF0
00FFF0
00FFF0
00FFF0
00FFF0
00FFF0
00FFF0
00FFF0
00FFF0
00FFF0
00FFF0
00FFF0
00FFF0
00FFF0
00FFF0
00FFF0
00FFF0
00FFF0
01FFF0
3FFFE0
3FFFE0
7FFFE0
7FFFC0
7FFF80
7FFF80
FFFE00
FFFC00
3FE000
ENDCHAR
STARTCHAR k
ENCODING 107
SWIDTH 568 0
DWIDTH 40 0
BBX 35 49 4 0
BITMAP
FFF0000000
FFF0000000
FFF0000000
FFF0000000
FFF0000000
FFF0000000
FFF0000000
FFF0000000
FFF0000000
FFF0000000
FFF0000000
FFF0000000
FFF0000000
FFF0000000
FFF007FFE0
FFF007FFC0
FFF00FFF80
FFF01FFF00
FFF03FFE00
FFF07FFC00
FFF07FF800
FFF0FFF000
FFF1FFF000
FFF3FFE000
FFF7FFC000
FFF7FF8000
FFFFFF0000
FFFFFE0000
FFFFFC0000
FFFFFE0000
FFFFFF0000
FFFFFF0000
FFFFFF8000
FFFFFFC000
FFFFFFC000
FFFFFFE000
FFFFFFE000
FFFEFFF000
FFFC7FF800
FFF87FF800
FFF03FFC00
FFF03FFE00
FFF01FFE00
FFF01FFF00
FFF00FFF80
FFF00FFF80
FFF007FFC0
FFF003FFE0
FFF003FFE0
ENDCHAR
STARTCHAR l
ENCODING 108
SWIDTH 298 0
DWIDTH 21 0
BBX 17 50 4 -1
BITMAP
FFF000
FFF000
FFF000
FFF000
FFF000
FFF000
FFF000
FFF000
FFF000
FFF000
FFF000
FFF000
FFF000
FFF000
FFF000
FFF000
FFF000
FFF000
FFF000
FFF000
FFF000
FFF000
FFF000
FFF000
FFF000
FFF000
FFF000
FFF000
FFF000
FFF000
FFF000
FFF000
FFF000
FFF000
FFF000
FFF000
FFF000
FFF000
FFF000
FFF000
FFF800
FFFE00
7FFF00
7FFF00
7FFF00
3FFF00
3FFF00
1FFF00
07FF80
01FE00
ENDCHAR
STARTCHAR m
ENCODING 109
SWIDTH 868 0
DWIDTH 61 0
BBX 53 36 4 0
BITMAP
00003F8003FC00
FFC0FFE00FFF00
FFC3FFF81FFF80
FFC7FFFC3FFFC0
FFEFFFFCFFFFE0
FFFFFFFFFFFFE0
FFFFFFFFFFFFF0
FFFFFFFFFFFFF0
FFFFFFFFFFFFF0
FFFFFFFFFFFFF8
FFFE1FFFF1FFF8
FFFC0FFFC0FFF8
FFF80FFF807FF8
FFF00FFF807FF8
FFF00FFF807FF8
FFF00FFF807FF8
FFF00FFF807FF8
FFF00FFF807FF8
FFF00FFF807FF8
FFF00FFF807FF8
FFF00FFF807FF8
FFF00FFF807FF8
FFF00FFF807FF8
FFF00FFF807FF8
FFF00FFF807FF8
FFF00FFF807FF8
FFF00FFF807FF8
FFF00FFF807FF8
FFF00FFF807FF8
FFF00FFF807FF8
FFF00FFF807FF8
FFF00FFF807FF8
FFF00FFF807FF8
FFF00FFF807FF8
FFF00FFF807FF8
FFF00FFF807FF8
ENDCHAR
STARTCHAR n
ENCODING 110
SWIDTH 582 0
DWIDTH 41 0
BBX 33 36 4 0
BITMAP
00003FC000
FFC0FFF000
FFC3FFF800
FFC7FFFC00
FFEFFFFE00
FFFFFFFE00
FFFFFFFF00
FFFFFFFF00
FFFFFFFF00
FFFFFFFF80
FFFE1FFF80
FFFC0FFF80
FFF807FF80
FFF007FF80
FFF007FF80
FFF007FF80
FFF007FF80
FFF007FF80
FFF007FF80
FFF007FF80
FFF007FF80
FFF007FF80
FFF007FF80
FFF007FF80
FFF007FF80
FFF007FF80
FFF007FF80
FFF007FF80
FFF007FF80
FFF007FF80
FFF007FF80
FFF007FF80
FFF007FF80
FFF007FF80
FFF007FF80
FFF007FF80
ENDCHAR
STARTCHAR o
ENCODING 111
SWIDTH 560 0
DWIDTH 39 0
BBX 35 37 2 -1
BITMAP
0007FC0000
003FFF8000
007FFFE000
01FFFFF000
03FFFFF800
07FFFFFC00
0FFFFFFE00
1FFFFFFF00
1FFFFFFF00
3FFF0FFF80
3FFC07FF80
7FFC07FFC0
7FF803FFC0
7FF803FFC0
7FF803FFE0
FFF803FFE0
FFF801FFE0
FFF801FFE0
FFF801FFE0
FFF801FFE0
FFF801FFE0
FFF803FFE0
7FF803FFE0
7FF803FFC0
7FF803FFC0
7FFC07FFC0
3FFC07FF80
3FFF0FFF80
1FFFFFFF00
1FFFFFFF00
0FFFFFFE00
07FFFFFC00
03FFFFF800
01FFFFF000
00FFFFE000
003FFF8000
0007FC0000
ENDCHAR
STARTCHAR p
ENCODING 112
SWIDTH 580 0
DWIDTH 41 0
BBX 34 48 4 -12
BITMAP
00007F0000
FFC1FFE000
FFC7FFF000
FFEFFFF800
FFFFFFFC00
FFFFFFFE00
FFFFFFFE00
FFFFFFFF00
FFFFFFFF00
FFFE1FFF80
FFFC0FFF80
FFF807FF80
FFF007FFC0
FFF007FFC0
FFF003FFC0
FFF003FFC0
FFF003FFC0
FFF003FFC0
FFF003FFC0
FFF003FFC0
FFF003FFC0
FFF003FFC0
FFF007FFC0
FFF007FFC0
FFF007FF80
FFF80FFF80
FFF80FFF80
FFFE3FFF00
FFFFFFFF00
FFFFFFFE00
FFFFFFFE00
FFFFFFFC00
FFFFFFF800
FFFFFFF000
FFF7FFE000
FFF3FF8000
FFF0FE0000
FFF0000000
FFF0000000
FFF0000000
FFF0000000
FFF0000000
FFF0000000
FFF0000000
FFF0000000
FFF0000000
FFF0000000
FFF0000000
ENDCHAR
STARTCHAR q
ENCODING 113
SWIDTH 580 0
DWIDTH 41 0
BBX 34 48 3 -12
BITMAP
001F800000
00FFF0FFC0
01FFF8FFC0
07FFFDFFC0
0FFFFFFFC0
1FFFFFFFC0
1FFFFFFFC0
3FFFFFFFC0
3FFFFFFFC0
7FFE1FFFC0
7FFC07FFC0
FFF807FFC0
FFF807FFC0
FFF007FFC0
FFF007FFC0
FFF007FFC0
FFF007FFC0
FFF007FFC0
FFF007FFC0
FFF007FFC0
FFF007FFC0
FFF007FFC0
FFF007FFC0
FFF007FFC0
FFF807FFC0
FFF807FFC0
7FFC0FFFC0
7FFE1FFFC0
7FFFFFFFC0
3FFFFFFFC0
3FFFFFFFC0
1FFFFFFFC0
0FFFFFFFC0
07FFFFFFC0
03FFFBFFC0
01FFE3FFC0
003F83FFC0
000003FFC0
000007FFC0
000007FFC0
000007FFC0
000007FFC0
000007FFC0
000007FFC0
000007FFC0
000007FFC0
000007FFC0
000007FFC0
ENDCHAR
STARTCHAR r
ENCODING 114
SWIDTH 418 0
DWIDTH 29 0
BBX 25 36 4 0
BITMAP
00003F80
FFC0FF80
FFC3FF80
FFC7FF80
FFC7FF80
FFCFFF00
FFFFFF00
FFFFFF00
FFFFFF00
FFFFFF00
FFFFFF00
FFFF8200
FFFE0000
FFFC0000
FFF80000
FFF00000
FFF00000
FFF00000
FFF00000
FFF00000
FFF00000
FFF00000
FFF00000
FFF00000
FFF00000
FFF00000
FFF00000
FFF00000
FFF00000
FFF00000
FFF00000
FFF00000
FFF00000
FFF00000
FFF00000
FFF00000
ENDCHAR
STARTCHAR s
ENCODING 115
SWIDTH 452 0
DWIDTH 32 0
BBX 29 37 1 -1
BITMAP
001FF800
007FFE00
01FFFF80
07FFFFE0
0FFFFFF8
0FFFFFF0
1FFFFFF0
1FFFFFE0
3FFFFFC0
3FFC1F80
3FF80780
3FF80100
3FFC0000
3FFF0000
1FFFE000
1FFFFC00
0FFFFF00
0FFFFF80
07FFFFC0
03FFFFE0
00FFFFF0
003FFFF0
000FFFF0
0001FFF8
04007FF8
06003FF8
0F803FF8
1FE07FF8
1FFFFFF0
3FFFFFF0
7FFFFFF0
7FFFFFE0
FFFFFFC0
3FFFFF80
0FFFFF00
03FFFC00
003FE000
ENDCHAR
STARTCHAR t
ENCODING 116
SWIDTH 400 0
DWIDTH 28 0
BBX 26 46 1 -1
BITMAP
01FF8000
03FF8000
03FF8000
03FF8000
03FF8000
03FF8000
03FF8000
03FF8000
03FF8000
07FF8000
FFFFFF80
FFFFFF80
FFFFFF80
FFFFFF80
FFFFFF80
FFFFFF80
FFFFFF80
FFFFFF80
FFFFFF80
07FF8000
07FF8000
07FF8000
07FF8000
07FF8000
07FF8000
07FF8000
07FF8000
07FF8000
07FF8000
07FF8000
07FF8000
07FF8000
07FF8000
07FF8000
07FF8000
07FFC000
07FFE100
07FFFF00
03FFFF00
03FFFF80
01FFFF80
01FFFF80
00FFFF80
007FFF80
001FFFC0
0007FE00
ENDCHAR
STARTCHAR u
ENCODING 117
SWIDTH 578 0
DWIDTH 40 0
BBX 32 36 4 -1
BITMAP
FFF00FFF
FFF00FFF
FFF00FFF
FFF00FFF
FFF00FFF
FFF00FFF
FFF00FFF
FFF00FFF
FFF00FFF
FFF00FFF
FFF00FFF
FFF00FFF
FFF00FFF
FFF00FFF
FFF00FFF
FFF00FFF
FFF00FFF
FFF00FFF
FFF00FFF
FFF00FFF
FFF00FFF
FFF00FFF
FFF00FFF
FFF00FFF
FFF01FFF
FFF83FFF
FFFFFFFF
FFFFFFFF
7FFFFFFF
7FFFFFFF
7FFFFFFF
3FFFFBFF
1FFFF3FF
0FFFC3FF
07FF83FF
01FC0000
ENDCHAR
STARTCHAR v
ENCODING 118
SWIDTH 544 0
DWIDTH 38 0
BBX 36 35 1 0
BITMAP
FFF0007FF0
FFF000FFF0
7FF000FFE0
7FF800FFE0
7FF800FFE0
3FF801FFE0
3FF801FFC0
3FFC01FFC0
1FFC01FFC0
1FFC03FF80
1FFC03FF80
0FFE03FF80
0FFE03FF00
0FFE07FF00
07FE07FF00
07FF07FE00
07FF07FE00
03FF0FFE00
03FF0FFC00
03FF8FFC00
01FF8FFC00
01FF9FF800
01FF9FF800
00FFDFF800
00FFDFF800
00FFDFF000
007FFFF000
007FFFF000
007FFFE000
003FFFE000
003FFFE000
003FFFC000
001FFFC000
001FFFC000
001FFF8000
ENDCHAR
STARTCHAR w
ENCODING 119
SWIDTH 798 0
DWIDTH 56 0
BBX 52 35 2 0
BITMAP
FFF007FE007FF0
FFF007FF007FF0
FFF007FF007FF0
7FF00FFF00FFE0
7FF00FFF00FFE0
7FF80FFF80FFE0
7FF80FFF80FFE0
7FF81FFF80FFC0
3FF81FFF80FFC0
3FF81FFF81FFC0
3FF81FFFC1FFC0
3FFC1FFFC1FFC0
1FFC3FFFC1FF80
1FFC3FFFC1FF80
1FFC3FBFE3FF80
1FFC3FBFE3FF80
0FFC7F9FE3FF00
0FFE7F9FE3FF00
0FFE7F9FE3FF00
0FFE7F9FF3FF00
07FE7F9FF3FF00
07FE7F1FF3FE00
07FEFF0FF7FE00
07FEFF0FF7FE00
03FFFF0FFFFE00
03FFFF0FFFFC00
03FFFE0FFFFC00
03FFFE07FFFC00
01FFFE07FFFC00
01FFFE07FFF800
01FFFE07FFF800
01FFFE07FFF800
01FFFC03FFF800
00FFFC03FFF800
00FFFC03FFF000
ENDCHAR
STARTCHAR x
ENCODING 120
SWIDTH 540 0
DWIDTH 38 0
BBX 36 35 1 0
BITMAP
7FFC01FFE0
7FFC03FFC0
3FFE03FFC0
1FFE03FF80
1FFF07FF80
0FFF07FF00
0FFF87FF00
07FF8FFE00
03FFCFFE00
03FFDFFC00
01FFFFFC00
01FFFFF800
00FFFFF000
007FFFF000
007FFFE000
003FFFE000
003FFFC000
003FFFC000
007FFFC000
007FFFC000
00FFFFE000
00FFFFE000
01FFFFF000
01FFFFF800
03FFFFF800
07FF3FFC00
07FF3FFE00
0FFE1FFE00
0FFE1FFF00
1FFE0FFF00
1FFC0FFF80
3FFC07FFC0
7FF803FFC0
7FF803FFE0
FFF801FFF0
ENDCHAR
STARTCHAR y
ENCODING 121
SWIDTH 542 0
DWIDTH 38 0
BBX 36 48 1 -13
BITMAP
FFF000FFF0
FFF000FFF0
7FF800FFE0
7FF800FFE0
3FF801FFE0
3FFC01FFC0
3FFC01FFC0
1FFC01FFC0
1FFE03FF80
0FFE03FF80
0FFE03FF80
0FFE03FF00
07FF07FF00
07FF07FE00
03FF07FE00
03FF87FE00
03FF8FFC00
01FF8FFC00
01FF8FFC00
00FFCFF800
00FFDFF800
00FFDFF800
007FDFF000
007FFFF000
003FFFF000
003FFFE000
003FFFE000
001FFFE000
001FFFC000
000FFFC000
000FFFC000
000FFF8000
0007FF8000
0007FF8000
0007FF0000
0007FF0000
000FFE0000
001FFE0000
003FFE0000
07FFFC0000
07FFF80000
0FFFF80000
0FFFF00000
0FFFE00000
0FFFC00000
1FFF800000
1FFF000000
1FF8000000
ENDCHAR
STARTCHAR z
ENCODING 122
SWIDTH 474 0
DWIDTH 33 0
BBX 29 35 3 0
BITMAP
7FFFFFF0
7FFFFFF0
7FFFFFF0
7FFFFFF0
7FFFFFF0
7FFFFFF0
7FFFFFF0
7FFFFFE0
7FFFFFC0
0007FFC0
000FFF80
001FFF00
001FFF00
003FFE00
007FFC00
007FFC00
00FFF800
01FFF000
01FFF000
03FFE000
07FFC000
07FFC000
0FFF8000
1FFF0000
1FFF0000
3FFE0000
7FFFFFF8
7FFFFFF8
FFFFFFF8
FFFFFFF8
FFFFFFF8
FFFFFFF8
FFFFFFF8
FFFFFFF8
FFFFFFF8
ENDCHAR
STARTCHAR braceleft
ENCODING 123
SWIDTH 360 0
DWIDTH 25 0
BBX 20 59 2 -10
BITMAP
001FF0
00FFF0
01FFF0
01FFF0
03FFF0
03FFF0
03FF00
03FE00
07FE00
07FE00
07FE00
07FE00
07FE00
03FE00
03FE00
03FE00
03FE00
03FE00
03FE00
03FE00
03FE00
03FE00
03FE00
07FE00
07FE00
1FFE00
FFFC00
FFF800
FFF000
FFC000
FFF000
FFF800
FFFC00
1FFE00
07FE00
07FE00
03FE00
03FE00
03FE00
03FE00
03FE00
03FE00
03FE00
03FE00
03FE00
03FE00
07FE00
07FE00
07FE00
07FE00
07FE00
03FE00
03FF00
03FFF0
03FFF0
01FFF0
01FFF0
00FFF0
003FF0
ENDCHAR
STARTCHAR bar
ENCODING 124
SWIDTH 278 0
DWIDTH 19 0
BBX 8 70 6 -18
BITMAP
FF
FF
FF
FF
FF
FF
FF
FF
FF
FF
FF
FF
FF
FF
FF
FF
FF
FF
FF
FF
FF
FF
FF
FF
FF
FF
FF
FF
FF
FF
FF
FF
FF
FF
FF
FF
FF
FF
FF
FF
FF
FF
FF
FF
FF
FF
FF
FF
FF
FF
FF
FF
FF
FF
FF
FF
FF
FF
FF
FF
FF
FF
FF
FF
FF
FF
FF
FF
FF
FF
ENDCHAR
STARTCHAR braceright
ENCODING 125
SWIDTH 360 0
DWIDTH 25 0
BBX 19 59 4 -10
BITMAP
FF8000
FFE000
FFF000
FFF800
FFF800
FFF800
1FFC00
0FFC00
0FFC00
0FFC00
0FFC00
0FFC00
0FFC00
0FFC00
0FFC00
0FF800
0FF800
0FF800
0FF800
0FF800
0FF800
0FF800
0FF800
0FFC00
0FFE00
0FFF00
07FFE0
03FFE0
01FFE0
007FE0
01FFE0
03FFE0
07FFE0
0FFF00
0FFE00
0FFC00
0FF800
0FF800
0FF800
0FF800
0FF800
0FF800
0FF800
0FF800
0FFC00
0FFC00
0FFC00
0FFC00
0FFC00
0FFC00
0FFC00
0FFC00
1FFC00
FFF800
FFF800
FFF800
FFF000
FFE000
FF8000
ENDCHAR
STARTCHAR asciitilde
ENCODING 126
SWIDTH 540 0
DWIDTH 38 0
BBX 34 13 2 17
BITMAP
00FC000000
03FF001000
0FFFC01C00
1FFFE03E00
3FFFF87F00
7FFFFFFFC0
FFFFFFFF80
FFFFFFFF80
7F87FFFF00
1F01FFFE00
0E00FFFC00
04003FF000
00000FC000
ENDCHAR
ENDFONT
